<?xml version="1.0" encoding="UTF-8"?>
<svg version="1.1" xmlns="http://www.w3.org/2000/svg" width="1280" height="323">
<path d="M0 0 C7.59925297 1.26654216 15.11200918 2.57908151 22.63696289 4.17626953 C23.63153252 4.385244 24.62610214 4.59421846 25.65081024 4.80952549 C28.92527423 5.49819924 32.19896649 6.19046857 35.47265625 6.8828125 C37.80936028 7.37510366 40.1461075 7.86718983 42.4828949 8.35908508 C48.72236532 9.67324369 54.9611404 10.99067414 61.19973755 12.30897141 C66.35363975 13.39775997 71.50788298 14.48492952 76.66211128 15.57217312 C91.94498588 18.79621027 107.22648322 22.02673821 122.5072403 25.26079559 C125.84779839 25.96778819 129.18839221 26.67461174 132.5289917 27.38140869 C144.38707619 29.89067149 156.2439787 32.40542666 168.0994072 34.92720795 C170.49980938 35.43745948 172.9004066 35.94678408 175.30105591 36.45587158 C178.99760443 37.23995268 182.6935606 38.02676321 186.38902473 38.81593895 C188.34218136 39.2324317 190.29589121 39.64632747 192.24961853 40.06013489 C193.95620384 40.42566719 193.95620384 40.42566719 195.69726562 40.79858398 C196.68134399 41.00821274 197.66542236 41.21784149 198.67932129 41.43382263 C201 42 201 42 203 43 C202.9278125 42.07445312 202.855625 41.14890625 202.78125 40.1953125 C201.82671365 26.79947521 201.90472278 13.42340492 202 0 C208.80156321 1.93770227 215.39228355 4.19520151 221.97265625 6.78125 C222.91213608 7.14677979 223.85161591 7.51230957 224.81956482 7.88891602 C227.90193355 9.08907747 230.98218902 10.29456816 234.0625 11.5 C236.24984064 12.35262249 238.4373437 13.2048284 240.625 14.05664062 C245.16615741 15.825212 249.70661328 17.59556717 254.24658203 19.3671875 C263.65102109 23.03550579 273.06391031 26.68198615 282.47677612 30.32861328 C287.56825313 32.3013711 292.65909197 34.27577445 297.75 36.25 C299.79166366 37.04167443 301.83333032 37.8333411 303.875 38.625 C316.12500005 43.37500002 316.12500005 43.37500002 319.18730164 44.56242371 C321.22962896 45.35434613 323.27195684 46.14626711 325.31428528 46.93818665 C330.40834852 48.91342841 335.50240213 50.88869501 340.59643555 52.86401367 C349.9030398 56.47281668 359.20972033 60.08142241 368.51675415 63.68911743 C372.76429983 65.33561581 377.01179017 66.98225694 381.25927734 68.62890625 C383.22230363 69.3898811 385.18535494 70.15079141 387.1484375 70.91162109 C388.93978315 71.6058944 390.73078885 72.30104571 392.5213946 72.99722508 C394.40801291 73.72678744 396.29706695 74.45010519 398.18928458 75.16501942 C403.45330722 77.16878582 408.65030108 79.26427345 413.7898399 81.56617402 C435.45946616 91.23681693 453.97110872 95.07804664 477.61076011 94.74666591 C481.90905057 94.70267352 486.20684865 94.74232701 490.50516486 94.77014983 C497.99638615 94.80770123 505.48610202 94.79469209 512.97724152 94.74625206 C524.11549837 94.67446926 535.25269426 94.68454837 546.39110068 94.71004367 C565.13765646 94.75070212 583.88359678 94.72699225 602.63007355 94.66541672 C621.16670229 94.60474508 639.70300694 94.57340738 658.23973846 94.58046341 C659.39624975 94.5808874 660.55276103 94.58131139 661.7443181 94.58174823 C667.61867337 94.58405228 673.49302827 94.58687285 679.36738321 94.5898921 C720.8762359 94.61029999 762.38479004 94.56611943 803.89355469 94.48339844 C844.19565726 94.40323135 884.49762124 94.35266679 924.79980469 94.34179688 C926.04410049 94.34144956 927.28839629 94.34110225 928.57039802 94.34074442 C941.06717394 94.33728876 953.56394994 94.33443082 966.0607261 94.33201059 C991.51360958 94.32706758 1016.96649115 94.31813758 1042.41937256 94.30679321 C1043.58941886 94.30627664 1044.75946516 94.30576007 1045.96496741 94.30522785 C1081.79732805 94.28919825 1117.6296453 94.25628487 1153.4619751 94.20663452 C1154.47844435 94.20523266 1155.49491361 94.2038308 1156.54218496 94.20238646 C1197.69480663 94.14537423 1238.84739964 94.07043516 1280 94 C1280 152.74 1280 211.48 1280 272 C1265.53111522 269.10622304 1251.07059276 266.21398198 1236.63601685 263.15971375 C1235.56824131 262.93394842 1234.50046577 262.7081831 1233.4003334 262.4755764 C1232.29240307 262.24129244 1231.18447273 262.00700848 1230.04296875 261.765625 C1227.63469678 261.25740478 1225.22640131 260.74929594 1222.81808472 260.24128723 C1216.97714024 259.00885786 1211.13646081 257.77517789 1205.29592133 256.54083103 C1200.50994472 255.52937581 1195.72386398 254.51841469 1190.93771362 253.50778198 C1190.24752937 253.36204272 1189.55734511 253.21630346 1188.84624618 253.06614786 C1187.43884959 252.76896247 1186.03145294 252.47177739 1184.62405622 252.17459261 C1172.69258098 249.65508395 1160.76137583 247.13429871 1148.83032 244.61280477 C1134.55749542 241.59640779 1120.28429497 238.58179694 1106.01074219 235.56884766 C1089.93882863 232.17628312 1073.86721892 228.78228355 1057.79599094 225.3864727 C1049.08296132 223.54545858 1040.36981242 221.70501359 1031.65634155 219.86608887 C1024.19499492 218.29139909 1016.73394685 216.71530353 1009.27326155 215.1374833 C1005.44603133 214.32812263 1001.61867443 213.51937501 997.79095078 212.71235085 C994.25474411 211.96676994 990.71893812 211.21931676 987.18341601 210.47049665 C985.32001082 210.07630129 983.45620626 209.68399523 981.59237957 209.29179764 C972.35501496 207.33238858 963.19906495 205.16448587 954 203 C954 225.77 954 248.54 954 272 C942.74868047 268.62460414 942.74868047 268.62460414 937.67211914 266.87792969 C935.95696106 266.28933922 935.95696106 266.28933922 934.20715332 265.68885803 C932.99539429 265.27075363 931.78363525 264.85264923 930.53515625 264.421875 C929.23267678 263.97396637 927.93014452 263.52621118 926.62756348 263.07859802 C923.15714449 261.88540712 919.68761814 260.68964145 916.21831131 259.49322128 C914.04807577 258.74502721 911.87758321 257.99758366 909.70700073 257.25039673 C888.07009028 249.80218092 866.45319311 242.29811255 844.85343933 234.74279785 C834.20038186 231.01838524 823.53751099 227.32224112 812.875 223.625 C811.85437469 223.27104156 810.83374939 222.91708313 809.78219604 222.55239868 C802.52164646 220.03440619 795.26085738 217.51710479 788 215 C779.70816399 212.12548821 771.41644558 209.25063782 763.125 206.375 C762.10425385 206.02100128 761.08350769 205.66700256 760.03182983 205.30227661 C745.0398905 200.10240247 730.05513185 194.88225892 715.07452393 189.64984131 C700.05902691 184.40614029 685.03135347 179.19805567 670 174 C654.09670153 168.50041336 638.19872194 162.98622992 622.3125 157.4375 C607.17253277 152.14969185 592.02652385 146.87960713 576.875 141.625 C575.85546234 141.27140411 574.83592468 140.91780823 573.78549194 140.55349731 C566.52384473 138.03513574 559.26195147 135.51748407 552 133 C527.76548541 124.59867636 503.53211786 116.1941929 479.3125 107.75 C478.42620911 107.44116882 477.53991821 107.13233765 476.62677002 106.81414795 C474.1012353 105.9339772 471.57596574 105.05304999 469.05078125 104.171875 C468.33818649 103.92359955 467.62559174 103.6753241 466.8914032 103.41952515 C466.1877211 103.1737674 465.484039 102.92800964 464.7590332 102.67480469 C463.70497211 102.31659686 463.70497211 102.31659686 462.62961686 101.9511525 C460.77371355 101.2798581 458.94037413 100.54453498 457.12720001 99.76516801 C447.10990557 95.68016376 438.10881619 95.29050108 427.384552 95.36076355 C425.53279982 95.35444105 423.68105406 95.34593159 421.82932079 95.33544332 C416.77570094 95.31306958 411.72254122 95.32145335 406.66890788 95.3351289 C401.20621404 95.34442885 395.74361248 95.32482203 390.28094482 95.30880737 C380.82806084 95.28501303 371.37530721 95.27934717 361.92239761 95.28615379 C348.25527166 95.29596843 334.58828987 95.27819496 320.92118727 95.25378648 C298.74481945 95.21492584 276.56848894 95.1981928 254.39208984 95.19555664 C232.85561005 95.19294359 211.31917819 95.17983112 189.78271484 95.15258789 C189.11820727 95.15175147 188.4536997 95.15091504 187.76905554 95.15005327 C180.43322679 95.14080687 173.09739844 95.13127423 165.76157022 95.12162435 C110.50770407 95.04920673 55.25391649 95.0168956 0 95 C0 63.65 0 32.3 0 0 Z " fill="#EF9726" transform="translate(0,0)"/>
<path d="M0 0 C7.59925297 1.26654216 15.11200918 2.57908151 22.63696289 4.17626953 C23.63153252 4.385244 24.62610214 4.59421846 25.65081024 4.80952549 C28.92527423 5.49819924 32.19896649 6.19046857 35.47265625 6.8828125 C37.80936028 7.37510366 40.1461075 7.86718983 42.4828949 8.35908508 C48.72236532 9.67324369 54.9611404 10.99067414 61.19973755 12.30897141 C66.35363975 13.39775997 71.50788298 14.48492952 76.66211128 15.57217312 C91.94498588 18.79621027 107.22648322 22.02673821 122.5072403 25.26079559 C125.84779839 25.96778819 129.18839221 26.67461174 132.5289917 27.38140869 C144.38707619 29.89067149 156.2439787 32.40542666 168.0994072 34.92720795 C170.49980938 35.43745948 172.9004066 35.94678408 175.30105591 36.45587158 C178.99760443 37.23995268 182.6935606 38.02676321 186.38902473 38.81593895 C188.34218136 39.2324317 190.29589121 39.64632747 192.24961853 40.06013489 C193.95620384 40.42566719 193.95620384 40.42566719 195.69726562 40.79858398 C196.68134399 41.00821274 197.66542236 41.21784149 198.67932129 41.43382263 C201 42 201 42 203 43 C202.9278125 42.07445312 202.855625 41.14890625 202.78125 40.1953125 C201.82671365 26.79947521 201.90472278 13.42340492 202 0 C208.80156321 1.93770227 215.39228355 4.19520151 221.97265625 6.78125 C222.91213608 7.14677979 223.85161591 7.51230957 224.81956482 7.88891602 C227.90193355 9.08907747 230.98218902 10.29456816 234.0625 11.5 C236.24984064 12.35262249 238.4373437 13.2048284 240.625 14.05664062 C245.16615741 15.825212 249.70661328 17.59556717 254.24658203 19.3671875 C263.65102109 23.03550579 273.06391031 26.68198615 282.47677612 30.32861328 C287.56825313 32.3013711 292.65909197 34.27577445 297.75 36.25 C299.79166366 37.04167443 301.83333032 37.8333411 303.875 38.625 C316.12500005 43.37500002 316.12500005 43.37500002 319.18730164 44.56242371 C321.22962896 45.35434613 323.27195684 46.14626711 325.31428528 46.93818665 C330.40834852 48.91342841 335.50240213 50.88869501 340.59643555 52.86401367 C349.9030398 56.47281668 359.20972033 60.08142241 368.51675415 63.68911743 C372.76429983 65.33561581 377.01179017 66.98225694 381.25927734 68.62890625 C383.22230363 69.3898811 385.18535494 70.15079141 387.1484375 70.91162109 C388.9387413 71.60549061 390.72855685 72.30062171 392.51779485 72.99723494 C394.4151606 73.73005793 396.31616048 74.45358488 398.22168231 75.1649307 C403.38683547 77.11383133 408.43692693 79.16831297 413.41171066 81.56720942 C439.17917463 93.92111523 462.98121625 95.00323757 491.21074414 94.70946169 C497.43110756 94.66055716 503.65115806 94.69417256 509.87159729 94.71690369 C520.60525881 94.74523527 531.33754252 94.723755 542.07100677 94.66541672 C553.30620081 94.60456788 564.54085774 94.57342961 575.77622223 94.58046341 C576.47939811 94.5808874 577.182574 94.58131139 577.90705824 94.58174823 C581.47931897 94.58405255 585.0515791 94.58687311 588.62383929 94.5898921 C613.81079991 94.6102545 638.99726693 94.56627634 664.18408203 94.48339844 C688.62584567 94.40312204 713.06737999 94.35265055 737.50927734 94.34179688 C738.64288662 94.34127591 738.64288662 94.34127591 739.79939709 94.34074442 C747.39006117 94.33728851 754.98072537 94.33443066 762.57138984 94.33201059 C778.02922384 94.3270687 793.48705468 94.31813976 808.94488525 94.30679321 C810.01056239 94.30601836 810.01056239 94.30601836 811.09776836 94.30522785 C858.39869847 94.2703789 905.69922187 94.13361236 953 94 C953 129.64 953 165.28 953 202 C934.46565464 198.52481025 934.46565464 198.52481025 925.984375 196.80078125 C925.01693359 196.60475815 924.04949219 196.40873505 923.05273438 196.20677185 C919.9514316 195.57725363 916.85064819 194.945234 913.75 194.3125 C912.14227722 193.98493713 912.14227722 193.98493713 910.5020752 193.65075684 C895.0811558 190.50455286 879.70025958 187.21430388 864.34594727 183.7590332 C850.59880099 180.66693888 836.80788506 177.8080776 823 175 C816.45782849 173.6691358 809.9160274 172.33647711 803.375 171 C802.5341687 170.82823242 801.6933374 170.65646484 800.82702637 170.47949219 C789.6044628 168.18385728 778.40871966 165.79615153 767.23364258 163.27807617 C758.02617306 161.20991573 748.79835388 159.24897097 739.5625 157.3125 C738.77706818 157.14779205 737.99163635 156.98308411 737.18240356 156.81338501 C733.84774503 156.11423056 730.51305402 155.41523137 727.17829895 154.71653748 C716.07397957 152.38877253 704.9747095 150.0371276 693.875 147.6875 C691.65568387 147.21783813 689.43636419 146.74819305 687.21704102 146.27856445 C682.71987247 145.32690253 678.22272281 144.37515144 673.72558594 143.42333984 C663.89539326 141.34287108 654.06495304 139.26357266 644.23452759 137.1842041 C640.99447547 136.49883139 637.75443765 135.8133911 634.5144043 135.12792969 C624.71697147 133.05521606 614.91947422 130.98280911 605.12167358 128.91183472 C582.29319798 124.08652487 559.46658034 119.25281416 536.64562988 114.39202881 C518.21021336 110.46559523 499.76991785 106.56238303 481.328125 102.66601562 C480.2753688 102.44352646 479.22261261 102.22103729 478.13795471 101.99180603 C476.19686166 101.58159962 474.25573384 101.17155767 472.31455994 100.76173401 C471.42434647 100.57360641 470.534133 100.38547882 469.61694336 100.19165039 C468.76193273 100.01522973 467.90692209 99.83880907 467.02600205 99.65704232 C465.02509429 99.22258092 463.03182537 98.75113475 461.04875839 98.24139565 C451.02300426 95.78392879 441.50270774 95.5706215 431.23269653 95.60127258 C429.36444948 95.59582397 427.49620585 95.58906863 425.62796772 95.58113068 C420.52884969 95.56320036 415.429878 95.56365073 410.33073592 95.56726015 C404.81897772 95.56788633 399.30726763 95.55124214 393.79553223 95.53674316 C384.25755579 95.5139943 374.71961578 95.50207846 365.18161392 95.49761391 C351.39143668 95.49114319 337.60132519 95.46818956 323.8111745 95.44127061 C301.43516123 95.39803673 279.059148 95.36802496 256.68310547 95.34643555 C234.95262287 95.32543735 213.22216284 95.29816603 191.49169922 95.26245117 C190.82121542 95.26135169 190.15073163 95.26025222 189.45993015 95.25911942 C182.72631466 95.24807056 175.9926994 95.23689469 169.25908428 95.2256258 C112.83940305 95.13121779 56.41972959 95.0606808 0 95 C0 63.65 0 32.3 0 0 Z " fill="#EB712C" transform="translate(0,0)"/>
<path d="M0 0 C7.21211443 0.65564677 14.12215993 1.99566205 21.1875 3.5625 C23.68732803 4.10756015 26.18733822 4.65178533 28.6875 5.1953125 C29.67879158 5.41153511 29.67879158 5.41153511 30.69010925 5.63212585 C38.20734517 7.26950096 45.73651539 8.84960677 53.26602173 10.42941284 C57.33775791 11.28376569 61.40912037 12.13989508 65.48046875 12.99609375 C66.28445602 13.16514725 67.0884433 13.33420074 67.91679382 13.50837708 C76.44848394 15.30319405 84.97675881 17.11400736 93.50482178 18.92596436 C103.95367469 21.14567544 114.40577756 23.34962204 124.859375 25.546875 C136.57756423 28.00993388 148.29340247 30.48227617 160 33 C170.78592578 35.31923912 181.5787799 37.6042746 192.375 39.875 C193.17315125 40.04288025 193.97130249 40.2107605 194.79364014 40.38372803 C200.52894119 41.58987668 206.26444855 42.79504272 212 44 C218.54180558 45.37433973 225.08352455 46.74908969 231.625 48.125 C232.42395691 48.29304138 233.22291382 48.46108276 234.04608154 48.63421631 C245.14223899 50.96881156 256.23248964 53.3294509 267.31811523 55.71362305 C277.91930142 57.99026998 288.52962361 60.22278713 299.140625 62.453125 C310.93139741 64.93144022 322.71948502 67.4219346 334.50482178 69.92596436 C344.95367469 72.14567544 355.40577756 74.34962204 365.859375 76.546875 C377.57756423 79.00993388 389.29340247 81.48227617 401 84 C411.78592831 86.31923966 422.57885596 88.60390605 433.375 90.875 C434.16949554 91.04221558 434.96399109 91.20943115 435.78256226 91.38171387 C444.08971052 93.13001223 452.39753151 94.87502164 460.70721436 96.61123657 C464.0957504 97.31949846 467.48395651 98.02933127 470.87213135 98.73931885 C472.46469935 99.0725859 474.05742526 99.40509957 475.65032959 99.73675537 C477.88839175 100.20276563 480.12587665 100.67146919 482.36328125 101.140625 C484.25494019 101.53556152 484.25494019 101.53556152 486.18481445 101.93847656 C493.47466459 103.54554792 500.73354722 105.29024641 508 107 C508 130.1 508 153.2 508 177 C496.74868047 173.62460414 496.74868047 173.62460414 491.67211914 171.87792969 C490.52868042 171.48553604 489.3852417 171.0931424 488.20715332 170.68885803 C486.99539429 170.27075363 485.78363525 169.85264923 484.53515625 169.421875 C483.23267678 168.97396637 481.93014452 168.52621118 480.62756348 168.07859802 C477.15714449 166.88540712 473.68761814 165.68964145 470.21831131 164.49322128 C468.04807577 163.74502721 465.87758321 162.99758366 463.70700073 162.25039673 C442.07009028 154.80218092 420.45319311 147.29811255 398.85343933 139.74279785 C388.20038186 136.01838524 377.53751099 132.32224112 366.875 128.625 C365.85437469 128.27104156 364.83374939 127.91708313 363.78219604 127.55239868 C356.52164646 125.03440619 349.26085738 122.51710479 342 120 C333.70816399 117.12548821 325.41644558 114.25063782 317.125 111.375 C316.10425385 111.02100128 315.08350769 110.66700256 314.03182983 110.30227661 C299.0398905 105.10240247 284.05513185 99.88225892 269.07452393 94.64984131 C254.05902691 89.40614029 239.03135347 84.19805567 224 79 C208.09670153 73.50041336 192.19872194 67.98622992 176.3125 62.4375 C161.17253277 57.14969185 146.02652385 51.87960713 130.875 46.625 C129.85546234 46.27140411 128.83592468 45.91780823 127.78549194 45.55349731 C120.52384473 43.03513574 113.26195147 40.51748407 106 38 C81.76548541 29.59867636 57.53211786 21.1941929 33.3125 12.75 C32.42620911 12.44116882 31.53991821 12.13233765 30.62677002 11.81414795 C20.40272959 8.25098121 10.18939371 4.66120999 0 1 C0 0.67 0 0.34 0 0 Z " fill="#FDBF2B" transform="translate(446,95)"/>
<path d="M0 0 C7.59925297 1.26654216 15.11200918 2.57908151 22.63696289 4.17626953 C23.63153252 4.385244 24.62610214 4.59421846 25.65081024 4.80952549 C28.92527423 5.49819924 32.19896649 6.19046857 35.47265625 6.8828125 C37.80936028 7.37510366 40.1461075 7.86718983 42.4828949 8.35908508 C48.72236532 9.67324369 54.9611404 10.99067414 61.19973755 12.30897141 C66.35363975 13.39775997 71.50788298 14.48492952 76.66211128 15.57217312 C91.94498588 18.79621027 107.22648322 22.02673821 122.5072403 25.26079559 C125.84779839 25.96778819 129.18839221 26.67461174 132.5289917 27.38140869 C144.38707619 29.89067149 156.2439787 32.40542666 168.0994072 34.92720795 C170.49980938 35.43745948 172.9004066 35.94678408 175.30105591 36.45587158 C178.99760443 37.23995268 182.6935606 38.02676321 186.38902473 38.81593895 C188.34218136 39.2324317 190.29589121 39.64632747 192.24961853 40.06013489 C193.95620384 40.42566719 193.95620384 40.42566719 195.69726562 40.79858398 C196.68134399 41.00821274 197.66542236 41.21784149 198.67932129 41.43382263 C201 42 201 42 203 43 C203 60.16 203 77.32 203 95 C136.01 95 69.02 95 0 95 C0 63.65 0 32.3 0 0 Z " fill="#EB702C" transform="translate(0,0)"/>
<path d="M0 0 C6.82176502 2.04652951 13.37180485 4.1871535 19.97265625 6.78125 C20.91213608 7.14677979 21.85161591 7.51230957 22.81956482 7.88891602 C25.90193355 9.08907747 28.98218902 10.29456816 32.0625 11.5 C34.24984064 12.35262249 36.4373437 13.2048284 38.625 14.05664062 C43.16615741 15.825212 47.70661328 17.59556717 52.24658203 19.3671875 C61.65102109 23.03550579 71.06391031 26.68198615 80.47677612 30.32861328 C85.56825313 32.3013711 90.65909197 34.27577445 95.75 36.25 C97.79166366 37.04167443 99.83333032 37.8333411 101.875 38.625 C114.12500003 43.37500001 114.12500003 43.37500001 117.18730164 44.56242371 C119.22962896 45.35434613 121.27195684 46.14626711 123.31428528 46.93818665 C128.40834852 48.91342841 133.50240213 50.88869501 138.59643555 52.86401367 C146.84232822 56.06150671 155.08822407 59.25899134 163.33447266 62.45556641 C164.91151474 63.06689171 164.91151474 63.06689171 166.52041626 63.69056702 C168.64147301 64.51274337 170.76254636 65.33487689 172.88363647 66.15696716 C178.06751768 68.16626939 183.25100683 70.17657052 188.43359375 72.18920898 C197.071647 75.54313399 205.71056622 78.89415555 214.36405945 82.20808411 C217.78221976 83.51758227 221.19850824 84.83191981 224.61459351 86.14682007 C226.19094789 86.75193122 227.76826627 87.3545377 229.34658813 87.95449829 C231.48348656 88.76688268 233.61703682 89.5875069 235.75 90.41015625 C236.94109375 90.86527588 238.1321875 91.32039551 239.359375 91.78930664 C242 93 242 93 243 95 C163.14 95 83.28 95 1 95 C0 26 0 26 0 0 Z " fill="#EF9826" transform="translate(202,0)"/>
<path d="M0 0 C74.39882426 0 74.39882426 0 89.74609375 14.5546875 C102.77505055 28.69008951 106.59032829 48.79453339 106.375 67.375 C106.36557373 68.64214844 106.35614746 69.90929687 106.34643555 71.21484375 C106.04557524 89.91373121 102.97902297 108.39678952 89.0078125 121.9296875 C65.89063687 141.65973117 24.99799198 134 0 134 C0 89.78 0 45.56 0 0 Z M31 18 C31 50.34 31 82.68 31 116 C43.79237075 116 55.53869604 115.57753055 65.5546875 106.73828125 C76.65606369 93.38662611 76.97220036 74.47339503 76 58 C74.61521462 44.29062477 71.85216479 31.34809283 61 22 C52.10941883 15.6812153 41.61538862 18 31 18 Z " fill="#036047" transform="translate(0,188)"/>
<path d="M0 0 C3.38681195 2.57462683 4.78170571 4.94234673 6.19140625 8.86328125 C6.94164062 8.26 7.691875 7.65671875 8.46484375 7.03515625 C18.98230967 -1.17747457 27.47911653 -5.72080998 41.19140625 -4.13671875 C48.36946947 -2.65479602 53.12714612 -0.03199054 57.8515625 5.5703125 C60.98385079 10.93081752 61.48226067 16.55199773 61.41845703 22.63452148 C61.41874908 23.37681503 61.41904114 24.11910858 61.41934204 24.88389587 C61.41795967 27.31334529 61.40245064 29.74247982 61.38671875 32.171875 C61.38298472 33.86580742 61.38013959 35.55974201 61.37814331 37.25367737 C61.37053753 41.69406179 61.35091553 46.13431365 61.32873535 50.574646 C61.30821085 55.1128968 61.29912751 59.6511692 61.2890625 64.18945312 C61.26766653 73.08079653 61.23250954 81.97200708 61.19140625 90.86328125 C52.28140625 90.86328125 43.37140625 90.86328125 34.19140625 90.86328125 C34.17158691 88.90583984 34.15176758 86.94839844 34.13134766 84.93164062 C34.06339182 78.44158093 33.98660292 71.95167199 33.90387917 65.46178436 C33.85407665 61.52957135 33.80774615 57.59738312 33.76953125 53.66503906 C33.73247453 49.86532923 33.68606133 46.0658353 33.63334274 42.26631165 C33.61490649 40.82159742 33.59975942 39.37683711 33.58806229 37.93205261 C34.12002441 25.65430366 34.12002441 25.65430366 29.44140625 14.92578125 C24.78836709 12.72851276 21.38964555 12.59933597 16.50390625 14.05078125 C12.9995281 15.340628 10.92065841 16.40477693 9.19140625 19.86328125 C8.06399914 23.24550257 8.03222934 25.87966828 7.98608398 29.44604492 C7.97618439 30.1097258 7.96628479 30.77340668 7.95608521 31.4571991 C7.92452535 33.64851324 7.8997347 35.83984906 7.875 38.03125 C7.8544257 39.5515448 7.8334291 41.07183394 7.81202698 42.59211731 C7.75685541 46.59186212 7.7074245 50.59165814 7.65917969 54.5914917 C7.60892875 58.67367099 7.55326144 62.75577599 7.49804688 66.83789062 C7.39052541 74.84629304 7.2895677 82.85475863 7.19140625 90.86328125 C-1.71859375 90.86328125 -10.62859375 90.86328125 -19.80859375 90.86328125 C-19.82317627 88.84001709 -19.83775879 86.81675293 -19.8527832 84.73217773 C-19.90322923 78.03052295 -19.9698417 71.32909808 -20.04430866 64.62766933 C-20.08894424 60.5664972 -20.12821507 56.5054238 -20.1550293 52.4440918 C-20.18113069 48.52112123 -20.22158059 44.59853201 -20.27178001 40.67579842 C-20.28840272 39.18281884 -20.29994554 37.68977338 -20.30620766 36.1967144 C-20.31589942 34.09745638 -20.34401601 31.9991639 -20.3762207 29.90014648 C-20.39287529 28.11144386 -20.39287529 28.11144386 -20.40986633 26.28660583 C-20.97281299 21.45335625 -22.28905827 17.38281673 -25.80859375 13.86328125 C-31.76726189 12.28241011 -36.37459341 13.21148908 -41.80859375 15.86328125 C-45.14738263 19.09773298 -45.72898641 22.34145979 -45.96681213 26.88787842 C-45.98235641 28.06924377 -45.9979007 29.25060913 -46.01391602 30.46777344 C-46.02876541 31.44888344 -46.02876541 31.44888344 -46.04391479 32.44981384 C-46.07540226 34.60322499 -46.10023647 36.75665817 -46.125 38.91015625 C-46.14558056 40.40660157 -46.16657732 41.90304121 -46.18797302 43.3994751 C-46.24307993 47.33180134 -46.29253922 51.26417906 -46.34082031 55.19659424 C-46.39111861 59.21183841 -46.44676114 63.22700814 -46.50195312 67.2421875 C-46.60939545 75.11582409 -46.71037706 82.98952417 -46.80859375 90.86328125 C-55.71859375 90.86328125 -64.62859375 90.86328125 -73.80859375 90.86328125 C-73.80859375 60.17328125 -73.80859375 29.48328125 -73.80859375 -2.13671875 C-64.89859375 -2.13671875 -55.98859375 -2.13671875 -46.80859375 -2.13671875 C-46.80859375 0.83328125 -46.80859375 3.80328125 -46.80859375 6.86328125 C-46.2259375 6.404375 -45.64328125 5.94546875 -45.04296875 5.47265625 C-32.2988456 -4.06539818 -14.49290332 -9.1089306 0 0 Z " fill="#046048" transform="translate(491.80859375,228.13671875)"/>
<path d="M0 0 C8.6847549 9.67512169 6.61244375 25.34343527 6.59375 37.46875 C6.59442541 38.86167925 6.5953974 40.25460838 6.59664917 41.64753723 C6.59810962 44.53757879 6.59602184 47.42758908 6.59130859 50.31762695 C6.58555299 54.02772792 6.58893704 57.73775746 6.59488106 61.44785595 C6.59848157 64.31047615 6.59735147 67.17307915 6.59475327 70.03569984 C6.59408561 71.40529705 6.5949068 72.7748958 6.59723282 74.1444912 C6.59975721 76.04448799 6.59523108 77.94449027 6.59033203 79.84448242 C6.58953644 80.92525558 6.58874084 82.00602875 6.58792114 83.11955261 C6.4609375 85.55078125 6.4609375 85.55078125 5.4609375 86.55078125 C3.53426243 86.63826332 1.60441889 86.65775459 -0.32421875 86.6484375 C-2.07895508 86.64360352 -2.07895508 86.64360352 -3.86914062 86.63867188 C-5.10083984 86.63029297 -6.33253906 86.62191406 -7.6015625 86.61328125 C-9.45491211 86.60651367 -9.45491211 86.60651367 -11.34570312 86.59960938 C-14.41020367 86.58777733 -17.47460971 86.57129298 -20.5390625 86.55078125 C-20.8690625 85.23078125 -21.1990625 83.91078125 -21.5390625 82.55078125 C-22.28349609 82.94910156 -22.28349609 82.94910156 -23.04296875 83.35546875 C-23.72230469 83.70867187 -24.40164062 84.061875 -25.1015625 84.42578125 C-25.76285156 84.77382813 -26.42414063 85.121875 -27.10546875 85.48046875 C-36.69250633 89.69691866 -48.30715724 90.04247972 -58.53125 87.93359375 C-64.92264883 85.43453469 -69.45090308 80.47444022 -72.63671875 74.48828125 C-75.78777347 66.51538 -75.81945518 57.22655922 -72.9765625 49.17578125 C-69.35564611 41.41847078 -63.77739505 36.88382121 -55.9453125 33.61328125 C-43.95619066 29.87355517 -31.02254741 29.09191886 -18.5390625 28.55078125 C-18.74118375 25.98353973 -18.97455718 23.42570702 -19.2265625 20.86328125 C-19.30680664 19.78143555 -19.30680664 19.78143555 -19.38867188 18.67773438 C-19.81081068 14.65823884 -20.29468888 12.85961402 -22.87890625 9.59375 C-26.49486336 6.81673742 -29.04459009 6.25228688 -33.5390625 6.55078125 C-38.69751303 8.15751174 -40.23428946 9.14441719 -43.5390625 13.55078125 C-44.1990625 16.85078125 -44.8590625 20.15078125 -45.5390625 23.55078125 C-53.4590625 23.55078125 -61.3790625 23.55078125 -69.5390625 23.55078125 C-69.5390625 12.85660623 -69.29622902 8.40748154 -62.8828125 0.51171875 C-48.6071652 -13.70343852 -14.64523882 -13.79031371 0 0 Z M-44.4140625 48.98828125 C-47.39223145 52.83387805 -47.17049188 57.00752901 -46.9609375 61.69921875 C-46.39008796 65.5577388 -45.25672342 67.75967004 -42.5390625 70.55078125 C-38.69056738 73.07979233 -35.0736382 72.66020109 -30.68359375 72.01953125 C-25.88171237 70.96993969 -23.03351456 68.60243986 -20.37036133 64.50561523 C-18.64187969 60.44101832 -19.13631457 56.01147241 -19.2890625 51.67578125 C-19.30710937 50.70125 -19.32515625 49.72671875 -19.34375 48.72265625 C-19.39064516 46.33100318 -19.45625343 43.94141528 -19.5390625 41.55078125 C-28.78512144 41.46851233 -37.22402475 42.89237968 -44.4140625 48.98828125 Z " fill="#035F47" transform="translate(194.5390625,232.44921875)"/>
<path d="M0 0 C5.81258661 6.71900482 7.0037159 14.19072355 6.98852539 22.86450195 C6.98867142 23.56748917 6.98881744 24.27047638 6.9889679 24.99476624 C6.98827441 27.30513659 6.98050857 29.61542508 6.97265625 31.92578125 C6.97079006 33.53289241 6.96936711 35.14000415 6.96836853 36.74711609 C6.96455915 40.96718937 6.95474239 45.18722797 6.94366455 49.4072876 C6.93341643 53.71748384 6.92886363 58.0276857 6.92382812 62.33789062 C6.91311866 70.78777807 6.8955347 79.23763072 6.875 87.6875 C-1.705 87.6875 -10.285 87.6875 -19.125 87.6875 C-19.455 86.3675 -19.785 85.0475 -20.125 83.6875 C-21.94791667 84.6640625 -23.77083333 85.640625 -25.59375 86.6171875 C-35.43436478 90.77818819 -48.09004099 91.63886363 -58.40625 88.77734375 C-65.14611577 85.62056927 -69.82045151 80.90812468 -72.55859375 73.8671875 C-75.03686687 64.33010889 -74.56631578 55.93180797 -70.4375 47.0625 C-65.91319918 39.78715912 -59.22830762 35.96211267 -51.125 33.6875 C-40.24417708 31.24673972 -29.24912966 30.16331086 -18.125 29.6875 C-18.33527698 19.39696328 -18.33527698 19.39696328 -21.125 9.6875 C-26.35862347 7.12409259 -31.57186407 7.32009247 -37.125 8.6875 C-40.19274841 9.82395906 -40.19274841 9.82395906 -42.125 12.6875 C-43.43462427 16.66939405 -44.2740117 20.56692506 -45.125 24.6875 C-53.045 24.6875 -60.965 24.6875 -69.125 24.6875 C-69.125 15.15966799 -67.99614665 8.90101829 -62.0859375 1.578125 C-48.34962013 -11.66565509 -14.02548134 -13.08456854 0 0 Z M-42.125 48.6875 C-45.97847485 52.92632234 -46.41047787 56.94044782 -46.34765625 62.46875 C-46.04298443 65.504778 -45.00851581 67.31566528 -43.125 69.6875 C-42.5371875 70.55375 -42.5371875 70.55375 -41.9375 71.4375 C-37.88430818 74.23280471 -33.14880232 73.82871411 -28.5 73.1875 C-24.18261833 71.2686637 -21.63002453 68.6720021 -19.125 64.6875 C-18.25383292 61.8506707 -18.00620371 59.31898023 -18.02734375 56.359375 C-18.03217773 55.16054688 -18.03217773 55.16054688 -18.03710938 53.9375 C-18.04548828 53.1125 -18.05386719 52.2875 -18.0625 51.4375 C-18.06701172 50.59703125 -18.07152344 49.7565625 -18.07617188 48.890625 C-18.08792039 46.82288599 -18.10585478 44.75518376 -18.125 42.6875 C-26.72509728 42.49848687 -35.05972378 43.57644911 -42.125 48.6875 Z " fill="#036047" transform="translate(393.125,231.3125)"/>
<path d="M0 0 C5.59717389 4.13157973 8.11033035 10.3077098 9.19140625 16.96875 C9.27787204 19.42104983 9.30911191 21.87552556 9.30493164 24.3293457 C9.30507767 25.05184006 9.30522369 25.77433441 9.30537415 26.51872253 C9.30468047 28.89402322 9.2969137 31.26924435 9.2890625 33.64453125 C9.28719638 35.29648292 9.28577339 36.94843515 9.28477478 38.60038757 C9.28096486 42.93882792 9.27114764 47.27723455 9.2600708 51.61566162 C9.24982385 56.04650415 9.24527013 60.47735215 9.24023438 64.90820312 C9.22952396 73.59506925 9.21193955 82.28190154 9.19140625 90.96875 C0.28140625 90.96875 -8.62859375 90.96875 -17.80859375 90.96875 C-17.82317627 88.98101562 -17.83775879 86.99328125 -17.8527832 84.9453125 C-17.90456624 78.35542241 -17.9698873 71.76577353 -18.04430866 65.17610168 C-18.08891136 61.18333989 -18.12818921 57.19067775 -18.1550293 53.19775391 C-18.18116378 49.33961487 -18.22163644 45.48186144 -18.27178001 41.6239624 C-18.28838053 40.15692973 -18.29993706 38.68983047 -18.30620766 37.22271729 C-18.28982267 26.23499867 -18.28982267 26.23499867 -21.80859375 15.96875 C-25.63841213 13.41553774 -28.44832522 12.55078578 -33.05859375 13.3671875 C-38.76580253 14.96295311 -40.81038271 16.66839797 -43.80859375 21.96875 C-44.41744267 25.35139208 -44.41744267 25.35139208 -44.35449219 28.98388672 C-44.36482986 29.65775925 -44.37516754 30.33163177 -44.38581848 31.02592468 C-44.41510802 33.23367688 -44.41674259 35.44050681 -44.41796875 37.6484375 C-44.43295991 39.18687677 -44.44968903 40.72529999 -44.46807861 42.26370239 C-44.51165992 46.2979814 -44.53173052 50.33204333 -44.54681396 54.36651611 C-44.56641854 58.48926581 -44.60838469 62.61178222 -44.6484375 66.734375 C-44.72363984 74.81246737 -44.77192279 82.89039072 -44.80859375 90.96875 C-53.71859375 90.96875 -62.62859375 90.96875 -71.80859375 90.96875 C-71.80859375 60.27875 -71.80859375 29.58875 -71.80859375 -2.03125 C-62.89859375 -2.03125 -53.98859375 -2.03125 -44.80859375 -2.03125 C-44.47859375 0.60875 -44.14859375 3.24875 -43.80859375 5.96875 C-43.27492188 5.49824219 -42.74125 5.02773437 -42.19140625 4.54296875 C-30.43675965 -5.27968576 -13.77081036 -7.85203874 0 0 Z " fill="#036048" transform="translate(743.80859375,228.03125)"/>
<path d="M0 0 C5.15857391 3.80782513 7.97641813 9.79217371 9.19140625 15.96875 C9.2801547 18.42505851 9.3177845 20.85191043 9.30493164 23.30761719 C9.30507767 24.03971909 9.30522369 24.77182098 9.30537415 25.52610779 C9.30467901 27.93931062 9.29690533 30.3524357 9.2890625 32.765625 C9.2871969 34.44142617 9.28577367 36.11722788 9.28477478 37.79302979 C9.28096077 42.19888826 9.27114001 46.60471366 9.2600708 51.01055908 C9.24983268 55.50833692 9.24527201 60.00612011 9.24023438 64.50390625 C9.22951674 73.32553769 9.21192897 82.14713592 9.19140625 90.96875 C0.28140625 90.96875 -8.62859375 90.96875 -17.80859375 90.96875 C-17.82317627 88.94548584 -17.83775879 86.92222168 -17.8527832 84.83764648 C-17.90322923 78.1359917 -17.9698417 71.43456683 -18.04430866 64.73313808 C-18.08894424 60.67196595 -18.12821507 56.61089255 -18.1550293 52.54956055 C-18.18113069 48.62658998 -18.22158059 44.70400076 -18.27178001 40.78126717 C-18.28840272 39.28828759 -18.29994554 37.79524213 -18.30620766 36.30218315 C-18.31589942 34.20292513 -18.34401601 32.10463265 -18.3762207 30.00561523 C-18.39287529 28.21691261 -18.39287529 28.21691261 -18.40986633 26.39207458 C-18.88932676 22.27560652 -19.8939959 19.64141178 -21.80859375 15.96875 C-25.18328984 13.71895261 -26.77877648 13.19262874 -30.80859375 12.96875 C-35.05737234 13.84029433 -38.70432884 14.86448509 -41.80859375 17.96875 C-43.7947171 21.9409967 -43.95709923 25.1603879 -44.01391602 29.55151367 C-44.02876541 30.54703499 -44.02876541 30.54703499 -44.04391479 31.56266785 C-44.07547465 33.75398199 -44.1002653 35.94531781 -44.125 38.13671875 C-44.1455743 39.65701355 -44.1665709 41.17730269 -44.18797302 42.69758606 C-44.24314459 46.69733087 -44.2925755 50.69712689 -44.34082031 54.69696045 C-44.39107125 58.77913974 -44.44673856 62.86124474 -44.50195312 66.94335938 C-44.60947459 74.95176179 -44.7104323 82.96022738 -44.80859375 90.96875 C-53.71859375 90.96875 -62.62859375 90.96875 -71.80859375 90.96875 C-71.80859375 60.27875 -71.80859375 29.58875 -71.80859375 -2.03125 C-62.89859375 -2.03125 -53.98859375 -2.03125 -44.80859375 -2.03125 C-44.47859375 0.60875 -44.14859375 3.24875 -43.80859375 5.96875 C-43.30070312 5.57042969 -42.7928125 5.17210937 -42.26953125 4.76171875 C-29.99966668 -4.68194106 -14.22035042 -8.10836396 0 0 Z " fill="#036047" transform="translate(291.80859375,228.03125)"/>
<path d="M0 0 C6.80156321 1.93770227 13.39228355 4.19520151 19.97265625 6.78125 C20.91213608 7.14677979 21.85161591 7.51230957 22.81956482 7.88891602 C25.90193355 9.08907747 28.98218902 10.29456816 32.0625 11.5 C34.24984064 12.35262249 36.4373437 13.2048284 38.625 14.05664062 C43.16615741 15.825212 47.70661328 17.59556717 52.24658203 19.3671875 C61.65102109 23.03550579 71.06391031 26.68198615 80.47677612 30.32861328 C85.56825313 32.3013711 90.65909197 34.27577445 95.75 36.25 C97.79166366 37.04167443 99.83333032 37.8333411 101.875 38.625 C114.12500003 43.37500001 114.12500003 43.37500001 117.18730164 44.56242371 C119.22962896 45.35434613 121.27195684 46.14626711 123.31428528 46.93818665 C128.40834852 48.91342841 133.50240213 50.88869501 138.59643555 52.86401367 C146.84232822 56.06150671 155.08822407 59.25899134 163.33447266 62.45556641 C164.91151474 63.06689171 164.91151474 63.06689171 166.52041626 63.69056702 C168.64147301 64.51274337 170.76254636 65.33487689 172.88363647 66.15696716 C178.06751768 68.16626939 183.25100683 70.17657052 188.43359375 72.18920898 C197.071647 75.54313399 205.71056622 78.89415555 214.36405945 82.20808411 C217.78221976 83.51758227 221.19850824 84.83191981 224.61459351 86.14682007 C226.19094789 86.75193122 227.76826627 87.3545377 229.34658813 87.95449829 C231.48348656 88.76688268 233.61703682 89.5875069 235.75 90.41015625 C236.94109375 90.86527588 238.1321875 91.32039551 239.359375 91.78930664 C242 93 242 93 243 95 C242.00081543 94.7721582 241.00163086 94.54431641 239.97216797 94.30957031 C227.55936415 91.50322293 215.09767431 88.96523646 202.6222229 86.45446777 C184.93342208 82.89130052 167.27161359 79.25242786 149.67333984 75.26535034 C137.94915596 72.61159737 126.18943767 70.19548803 114.39532471 67.87353516 C102.94524617 65.61798979 91.55719906 63.16004522 80.19238281 60.50683594 C72.51368351 58.73167115 64.7940709 57.15096794 57.0625 55.625 C50.5429856 54.33467944 44.05326367 52.92740741 37.5625 51.5 C29.51395777 49.73180446 21.45815405 48.10197734 13.3515625 46.625 C9.20730621 45.85217831 5.10609699 44.95320109 1 44 C-0.06154692 29.32790508 -0.10512312 14.70544977 0 0 Z " fill="#FDC02A" transform="translate(202,0)"/>
<path d="M0 0 C8.17437962 7.64648427 12.54652414 16.70482724 13.16113281 27.94750977 C13.2069377 31.48593742 13.23527842 35.02380065 13.25 38.5625 C13.270625 39.77486328 13.29125 40.98722656 13.3125 42.23632812 C13.37104012 55.88349433 10.71113177 68.71775505 1.328125 79.0390625 C-11.17345391 89.56891588 -26.41741402 90.28197161 -42 89 C-52.72063862 87.19255349 -61.93243554 82.59171617 -68.3125 73.6875 C-77.36713069 59.07214502 -77.22003869 37.97286628 -73.875 21.5625 C-71.07741418 11.82324094 -65.33541964 2.89871978 -56.61328125 -2.46875 C-51.56708245 -5.12708443 -46.61863902 -7.03011588 -41 -8 C-40.3503125 -8.12246094 -39.700625 -8.24492187 -39.03125 -8.37109375 C-25.73304608 -10.38071039 -10.66342188 -8.76770243 0 0 Z M-41.546875 10.48046875 C-50.73318926 22.28758443 -48.76881874 43.04205078 -47.10766602 57.07006836 C-46.07785972 64.07578706 -43.95063833 68.30227353 -38.8125 73 C-33.24915505 74.97807821 -28.04701691 74.87187757 -22.625 72.5625 C-13.16440996 63.3271621 -14.25626562 48.2480597 -14 36 C-13.96197145 27.30146874 -14.72169783 18.73909437 -19 11 C-25.49709945 4.93604051 -34.9298574 4.14751503 -41.546875 10.48046875 Z " fill="#036047" transform="translate(644,232)"/>
</svg>
