<?xml version="1.0" encoding="UTF-8"?>
<svg version="1.1" xmlns="http://www.w3.org/2000/svg" width="1280" height="366">
<path d="M0 0 C1.24907135 0.00081573 1.24907135 0.00081573 2.52337646 0.00164795 C16.53199061 0.04355478 29.97174256 1.02647511 43.625 4.375 C44.48109863 4.58398926 45.33719727 4.79297852 46.21923828 5.00830078 C78.19401651 13.13129392 105.98668779 29.58454691 129.625 52.375 C130.45128906 53.138125 131.27757812 53.90125 132.12890625 54.6875 C144.12178586 66.08362316 153.72308337 79.89633289 161.625 94.375 C161.96869629 95.00196777 162.31239258 95.62893555 162.66650391 96.27490234 C177.18200111 123.11937653 184.07508986 152.30826621 184 182.75 C183.99918427 183.99907135 183.99918427 183.99907135 183.99835205 185.27337646 C183.87798471 225.50976981 171.24871501 264.96528483 145.625 296.375 C145.20782715 296.89223633 144.7906543 297.40947266 144.36083984 297.94238281 C126.04829829 320.56335856 104.07256923 338.12459989 77.625 350.375 C76.49707031 350.90867187 75.36914062 351.44234375 74.20703125 351.9921875 C29.52804639 372.21034478 -22.09999102 371.2318506 -67.62304688 354.55126953 C-90.57660197 345.75240674 -110.77941995 331.33946168 -128.375 314.375 C-129.20128906 313.611875 -130.02757812 312.84875 -130.87890625 312.0625 C-142.87178586 300.66637684 -152.47308337 286.85366711 -160.375 272.375 C-160.89054443 271.43454834 -160.89054443 271.43454834 -161.41650391 270.47509766 C-175.93200111 243.63062347 -182.82508986 214.44173379 -182.75 184 C-182.74945618 183.16728577 -182.74891235 182.33457153 -182.74835205 181.47662354 C-182.70644522 167.46800939 -181.72352489 154.02825744 -178.375 140.375 C-178.16601074 139.51890137 -177.95702148 138.66280273 -177.74169922 137.78076172 C-169.61870608 105.80598349 -153.16545309 78.01331221 -130.375 54.375 C-129.611875 53.54871094 -128.84875 52.72242188 -128.0625 51.87109375 C-116.66637684 39.87821414 -102.85366711 30.27691663 -88.375 22.375 C-87.74803223 22.03130371 -87.12106445 21.68760742 -86.47509766 21.33349609 C-59.63062347 6.81799889 -30.44173379 -0.07508986 0 0 Z " fill="#008CEB" transform="translate(182.375,-0.375)"/>
<path d="M0 0 C1.0720166 0.00418945 2.1440332 0.00837891 3.24853516 0.01269531 C10.6448489 0.11850166 17.32785073 0.73218371 24.3125 3.3125 C25.16328125 3.5909375 26.0140625 3.869375 26.890625 4.15625 C33.93984981 6.66456312 41.12033235 10.41468225 45.92427063 16.28056335 C47.96630392 20.74042834 47.70630676 24.85326521 47.65307617 29.70239258 C47.65351425 30.74675476 47.65395233 31.79111694 47.65440369 32.86712646 C47.65231617 36.31395254 47.62898619 39.76029029 47.60546875 43.20703125 C47.59987268 45.59884882 47.59560264 47.99066983 47.59260559 50.38249207 C47.58115775 56.67407749 47.55169078 62.96545476 47.51849365 69.25695801 C47.48779165 75.67843815 47.47409996 82.09995197 47.45898438 88.52148438 C47.42682129 101.11857833 47.37620305 113.71552809 47.3125 126.3125 C42.71456741 127.42870832 41.01263647 126.99510244 36.875 124.625 C14.24745326 112.62765709 -11.02069877 114.69388639 -34.73071289 121.93664551 C-46.12216562 125.50716804 -57.40744434 129.40723722 -68.6875 133.3125 C-80.6315818 137.44718642 -92.1846833 141.28332875 -104.6875 143.3125 C-105.60789063 143.49425781 -106.52828125 143.67601562 -107.4765625 143.86328125 C-124.55663214 146.25282871 -139.93848267 143.81257106 -155.4375 136.375 C-156.45807495 135.88966797 -156.45807495 135.88966797 -157.49926758 135.39453125 C-161.67924165 133.25438453 -163.81332332 131.60708566 -165.6875 127.3125 C-166.11052871 123.84702079 -166.06635652 120.40981825 -166.02807617 116.92260742 C-166.02851425 115.87824524 -166.02895233 114.83388306 -166.02940369 113.75787354 C-166.02731617 110.31104746 -166.00398619 106.86470971 -165.98046875 103.41796875 C-165.97487268 101.02615118 -165.97060264 98.63433017 -165.96760559 96.24250793 C-165.95615775 89.95092251 -165.92669078 83.65954524 -165.89349365 77.36804199 C-165.86279165 70.94656185 -165.84909996 64.52504803 -165.83398438 58.10351562 C-165.80182129 45.50642167 -165.75120305 32.90947191 -165.6875 20.3125 C-160.95605469 19.18261719 -160.95605469 19.18261719 -158.5390625 20.3515625 C-157.80429688 20.87492187 -157.06953125 21.39828125 -156.3125 21.9375 C-140.69117879 31.96975569 -120.35724858 33.7721104 -102.4375 29.9375 C-83.9044945 25.6167189 -65.99574301 18.23127087 -48.26147461 11.44238281 C-39.25876855 8.04778237 -30.10288883 5.34029252 -20.80151367 2.89379883 C-18.9573438 2.38670003 -17.13919717 1.78679718 -15.328125 1.171875 C-10.20230542 -0.03808241 -5.24959932 -0.02769377 0 0 Z " fill="#FCFDFD" transform="translate(242.6875,110.6875)"/>
<path d="M0 0 C1.42033063 1.2007757 2.81480985 2.43254058 4.1875 3.6875 C5.52554688 4.88826172 5.52554688 4.88826172 6.890625 6.11328125 C23.42873423 21.72507562 31.49330314 42.70817671 32.27748299 65.2772541 C32.30963094 68.15154811 32.31130256 71.02422559 32.30102539 73.89868164 C32.30117142 74.98264221 32.30131744 76.06660278 32.3014679 77.18341064 C32.30077561 80.7381801 32.29301543 84.29289604 32.28515625 87.84765625 C32.28328964 90.32344026 32.28186688 92.79922464 32.28086853 95.27500916 C32.27706251 101.77030468 32.26724866 108.26557762 32.25616455 114.76086426 C32.24590917 121.39721411 32.24136208 128.03356619 32.23632812 134.66992188 C32.22562459 147.67579274 32.20804339 160.68164095 32.1875 173.6875 C18.6575 173.6875 5.1275 173.6875 -8.8125 173.6875 C-8.8125 160.4875 -8.8125 147.2875 -8.8125 133.6875 C-34.5525 133.6875 -60.2925 133.6875 -86.8125 133.6875 C-87.1425 146.8875 -87.4725 160.0875 -87.8125 173.6875 C-101.3425 173.6875 -114.8725 173.6875 -128.8125 173.6875 C-128.8578715 159.76926961 -128.89448524 145.85108917 -128.91612434 131.93280125 C-128.92651542 125.46843762 -128.94058825 119.00412767 -128.96337891 112.53979492 C-128.98527523 106.28927528 -128.99710369 100.03880694 -129.00225449 93.78825188 C-129.00592033 91.41591524 -129.01307781 89.04358107 -129.02396011 86.67126656 C-129.17522183 52.29705194 -129.17522183 52.29705194 -124.125 38.375 C-123.86227295 37.62847168 -123.5995459 36.88194336 -123.32885742 36.11279297 C-118.85314876 23.88138649 -111.8990132 14.78725885 -102.8125 5.6875 C-102.15507813 5.01847656 -101.49765625 4.34945312 -100.8203125 3.66015625 C-73.82453708 -21.88734796 -29.06345422 -21.47495019 0 0 Z M-78.21484375 39.58984375 C-89.96136968 55.01254406 -87.8125 72.75583411 -87.8125 91.6875 C-61.7425 91.6875 -35.6725 91.6875 -8.8125 91.6875 C-7.65730259 62.31178367 -7.65730259 62.31178367 -20.19140625 37.16015625 C-28.38840289 29.71372798 -37.50587686 26.45661823 -48.375 25.3125 C-59.85797081 26.56518772 -70.26125105 31.03456082 -78.21484375 39.58984375 Z " fill="#008CEB" transform="translate(791.8125,104.3125)"/>
<path d="M0 0 C17.86614779 14.06628864 27.25169719 34.07584689 30.125 56.25 C30.37056649 60.25777103 30.37976437 64.24646355 30.35205078 68.26074219 C30.35234283 69.39390869 30.35263489 70.5270752 30.35293579 71.69458008 C30.35155579 75.39542625 30.33605773 79.09606453 30.3203125 82.796875 C30.31657764 85.3804717 30.3137329 87.96406983 30.31173706 90.54766846 C30.30491226 96.62468741 30.28919119 102.70162211 30.26903808 108.77860951 C30.24657369 115.70498507 30.23565933 122.63136439 30.22564721 129.55776739 C30.20482138 143.78855714 30.16818788 158.01926095 30.125 172.25 C16.595 172.25 3.065 172.25 -10.875 172.25 C-10.875 159.05 -10.875 145.85 -10.875 132.25 C-36.615 132.25 -62.355 132.25 -88.875 132.25 C-88.875 145.45 -88.875 158.65 -88.875 172.25 C-102.405 172.58 -115.935 172.91 -129.875 173.25 C-129.94303008 158.41909323 -129.99816251 143.58826774 -130.03043652 128.75724125 C-130.04582806 121.86910939 -130.06676759 114.9810822 -130.10131836 108.09301758 C-130.13470393 101.4340059 -130.15190052 94.7751249 -130.15963173 88.11602592 C-130.16513476 85.58737932 -130.17587965 83.058738 -130.19219017 80.53013802 C-130.37124634 51.59587392 -126.8832255 27.50471797 -106.265625 5.5546875 C-76.92989037 -22.72649458 -32.13431216 -23.99946553 0 0 Z M-78.05859375 36.24609375 C-91.88225744 51.49671627 -88.875 70.2068293 -88.875 90.25 C-63.135 90.25 -37.395 90.25 -10.875 90.25 C-8.98293125 73.22138129 -8.43750181 54.75917327 -18.5625 40.0625 C-25.71692012 31.18671565 -35.06207254 25.77716566 -46.375 24.375 C-58.4336523 23.69659481 -69.25320138 28.00993887 -78.05859375 36.24609375 Z " fill="#008CEB" transform="translate(1249.875,105.75)"/>
<path d="M0 0 C89.30357143 0 89.30357143 0 104.625 7.625 C105.32318848 7.96490967 106.02137695 8.30481934 106.74072266 8.6550293 C131.21305099 20.98568122 147.18405901 41.35465371 156 67 C163.29269799 91.35963703 160.45149335 117.17469128 148.875 139.625 C136.80553848 161.92152837 117.78308568 177.39760731 94 186 C63.45353103 193.04918515 31.34928672 189 0 189 C0 126.63 0 64.26 0 0 Z M40 42 C40 76.98 40 111.96 40 148 C75.53681879 149.17675309 75.53681879 149.17675309 103.7109375 132.484375 C113.60992368 121.74076543 118.88698082 108.1009952 119.03515625 93.546875 C118.36209217 78.64096812 113.09473767 64.92874301 101.99609375 54.62109375 C87.96641569 43.2271282 73.77313438 40.80716851 56.25 40.875 C54.72826172 40.86919922 54.72826172 40.86919922 53.17578125 40.86328125 C52.19480469 40.86457031 51.21382813 40.86585938 50.203125 40.8671875 C49.32301758 40.86831543 48.44291016 40.86944336 47.53613281 40.87060547 C44.56628694 40.96029877 44.56628694 40.96029877 40 42 Z " fill="#008CEB" transform="translate(436,89)"/>
<path d="M0 0 C0.99 0.78503906 1.98 1.57007812 3 2.37890625 C10.48657823 8.91991405 15.9313744 17.24231837 20.375 26.0625 C20.68421387 26.67391846 20.99342773 27.28533691 21.31201172 27.9152832 C26.63821142 38.99441506 28.60194521 49.03869512 28.609375 61.3125 C28.62449865 62.79177064 28.64129108 64.27102503 28.65962219 65.7502594 C28.70353074 69.68806342 28.72354325 73.62564143 28.73842239 77.56364822 C28.75783724 81.6492414 28.79929469 85.73461739 28.83764648 89.82006836 C28.92359566 99.54661844 28.96728065 109.27314381 29 119 C29.00522328 120.45062258 29.01045181 121.90124514 29.01568604 123.35186768 C29.07090352 139.23483841 29.06339087 155.1170642 29 171 C15.8 171 2.6 171 -11 171 C-12.12495553 163.12531131 -12.12495553 163.12531131 -12.11352539 159.94525146 C-12.11341965 158.86133621 -12.11341965 158.86133621 -12.11331177 157.75552368 C-12.10556229 156.60375137 -12.10556229 156.60375137 -12.09765625 155.42871094 C-12.09546585 154.18548569 -12.09546585 154.18548569 -12.0932312 152.91714478 C-12.08944173 151.12588652 -12.08334278 149.33463196 -12.07516479 147.54338837 C-12.06229805 144.68958285 -12.0558577 141.8358244 -12.05102539 138.98199463 C-12.03771209 131.88465965 -12.01369036 124.78736877 -11.98962402 117.69006348 C-11.96968607 111.70074956 -11.95412395 105.71145347 -11.94406128 99.72211456 C-11.93769564 96.94473538 -11.92518293 94.16743129 -11.91235352 91.39007568 C-11.88703471 82.76108114 -12.00128037 74.15937517 -12.43359375 65.54003906 C-12.47153549 64.7601852 -12.50947723 63.98033134 -12.54856873 63.17684555 C-13.19641996 51.68887276 -16.88969028 41.51840193 -25.62109375 33.6328125 C-35.31199621 26.29407083 -44.75255502 22.88699126 -57.05078125 24.3671875 C-68.10634353 26.69014611 -77.57663889 32.645761 -84 42 C-92.22262207 55.57508361 -90.33804998 73.45566115 -90.4140625 88.67578125 C-90.43279993 91.05617423 -90.4523752 93.43656076 -90.4727478 95.81694031 C-90.52380308 102.0425127 -90.56357032 108.26810656 -90.60089111 114.49377441 C-90.64109861 120.86243892 -90.6921141 127.23101616 -90.7421875 133.59960938 C-90.83863136 146.06635067 -90.92213547 158.53312881 -91 171 C-104.2 171 -117.4 171 -131 171 C-131.02272094 157.78549895 -131.04101258 144.57101118 -131.05181217 131.3564949 C-131.05699913 125.21845007 -131.06401937 119.08041946 -131.07543945 112.94238281 C-131.08641883 107.00307834 -131.09230824 101.06378742 -131.09487724 95.12447357 C-131.09670468 92.87463925 -131.10027216 90.62480555 -131.10573006 88.37497711 C-131.13091815 77.54733632 -131.0887945 66.73516536 -130.59545898 55.91699219 C-130.56184045 55.1197234 -130.52822191 54.32245461 -130.49358463 53.50102615 C-129.43023319 33.27664738 -118.6350776 14.98205717 -104.25 1.1875 C-74.42107489 -24.21369404 -30.19158063 -24.75515454 0 0 Z " fill="#008CEB" transform="translate(1023,107)"/>
</svg>
