<?xml version="1.0" encoding="UTF-8"?>
<svg version="1.1" xmlns="http://www.w3.org/2000/svg" width="1280" height="326">
<path d="M0 0 C422.4 0 844.8 0 1280 0 C1280 107.25 1280 214.5 1280 325 C857.6 325 435.2 325 0 325 C0 217.75 0 110.5 0 0 Z " fill="#FEFEFE" transform="translate(0,0)"/>
<path d="M0 0 C4.1717684 3.57672949 8.09233807 7.38834484 11.97021484 11.27783203 C13.28326263 12.58658881 14.61040756 13.88334491 15.99365234 15.11767578 C37.1885144 34.37060021 50.06006795 67.61556524 52.36083984 95.66064453 C53.01293316 111.48998918 53.0866594 127.20357918 49.36083984 142.66064453 C49.13533447 143.66200439 49.13533447 143.66200439 48.90527344 144.68359375 C44.55911781 163.49888224 35.56139792 181.7204536 23.36083984 196.66064453 C22.88501465 197.25167969 22.40918945 197.84271484 21.91894531 198.45166016 C-1.35221541 227.15604206 -33.95576497 245.02251411 -70.63916016 249.66064453 C-75.59485273 249.89755291 -80.55333441 249.90632816 -85.51416016 249.91064453 C-86.20857208 249.91131927 -86.90298401 249.91199402 -87.61843872 249.91268921 C-98.25258278 249.89626878 -108.30359989 249.38110384 -118.63916016 246.66064453 C-119.29303711 246.48903809 -119.94691406 246.31743164 -120.62060547 246.140625 C-141.44846938 240.52462989 -160.41203855 230.91857627 -176.63916016 216.66064453 C-177.46802734 215.96455078 -178.29689453 215.26845703 -179.15087891 214.55126953 C-200.75792122 195.96310754 -213.93639169 170.75999384 -221.63916016 143.66064453 C-221.83413086 142.98050293 -222.02910156 142.30036133 -222.22998047 141.59960938 C-227.4356459 122.27494505 -227.14230331 95.85797285 -221.63916016 76.66064453 C-221.4080957 75.84772949 -221.17703125 75.03481445 -220.93896484 74.19726562 C-214.87671167 53.50553734 -205.60951178 35.17344289 -191.63916016 18.66064453 C-190.62402344 17.44248047 -190.62402344 17.44248047 -189.58837891 16.19970703 C-142.79864296 -38.03190648 -55.4342027 -45.29520942 0 0 Z " fill="#00AED6" transform="translate(224.63916015625,52.33935546875)"/>
<path d="M0 0 C1.9296875 1.64453125 1.9296875 1.64453125 4.4296875 4.14453125 C4.7596875 -0.47546875 5.0896875 -5.09546875 5.4296875 -9.85546875 C19.2896875 -9.85546875 33.1496875 -9.85546875 47.4296875 -9.85546875 C47.49756717 10.74688247 47.55276369 31.3491423 47.58512402 51.95157719 C47.6005529 61.51894718 47.6215658 71.08624244 47.65600586 80.65356445 C47.68603062 88.99835385 47.70529137 97.34308908 47.71195298 105.687931 C47.71584322 110.10109984 47.72490156 114.51411383 47.74687767 118.92723274 C47.76745013 123.09277373 47.77348003 127.25809811 47.76901054 131.42368507 C47.76982657 132.94126315 47.77566736 134.45884953 47.78730392 135.97638321 C47.88154171 148.91586779 46.97539306 162.02417185 40.6171875 173.58203125 C40.08617432 174.5877417 40.08617432 174.5877417 39.54443359 175.61376953 C36.91847522 180.48681666 34.14605028 185.01910747 30.4296875 189.14453125 C29.72457031 189.94117188 29.01945313 190.7378125 28.29296875 191.55859375 C12.48092294 208.41459105 -9.4827727 215.64727472 -32.12109375 216.42578125 C-44.24901481 216.66805266 -55.85326598 216.54536614 -67.5703125 213.14453125 C-69.38595703 212.65146484 -69.38595703 212.65146484 -71.23828125 212.1484375 C-88.96523419 206.83953657 -108.00565576 195.84695735 -118.5703125 180.14453125 C-118.5703125 179.15453125 -118.5703125 178.16453125 -118.5703125 177.14453125 C-116.62109375 175.26953125 -116.62109375 175.26953125 -113.8828125 173.14453125 C-112.88636719 172.35691406 -111.88992188 171.56929687 -110.86328125 170.7578125 C-110.32880371 170.33709473 -109.79432617 169.91637695 -109.24365234 169.48291016 C-106.34158359 167.16176325 -103.52191994 164.7440262 -100.6953125 162.33203125 C-98.65902519 160.5961999 -96.61699579 158.86819689 -94.5703125 157.14453125 C-93.70148438 156.35691406 -92.83265625 155.56929687 -91.9375 154.7578125 C-89.5703125 153.14453125 -89.5703125 153.14453125 -87.44921875 153.171875 C-85.14716464 154.36358284 -84.08202565 155.64968363 -82.5078125 157.70703125 C-73.29202412 168.64832894 -59.8113928 175.69012305 -45.5703125 177.14453125 C-32.53538589 177.95111234 -19.64324167 176.6383318 -8.5703125 169.14453125 C-1.55340514 162.90458249 3.00556775 155.46977694 4.4296875 146.14453125 C4.49621605 143.87457706 4.51512501 141.6028443 4.4921875 139.33203125 C4.48316406 138.17058594 4.47414063 137.00914062 4.46484375 135.8125 C4.45324219 134.93207031 4.44164062 134.05164063 4.4296875 133.14453125 C3.78644531 133.65242187 3.14320313 134.1603125 2.48046875 134.68359375 C-15.54291768 148.41324903 -34.58080954 152.16389229 -56.81787109 149.91748047 C-78.64860387 146.96259255 -96.72353345 135.94172697 -110.8203125 119.39453125 C-124.84275664 100.93164647 -129.118883 80.01510752 -127.5703125 57.14453125 C-126.81443803 51.63253035 -125.31541936 46.41608241 -123.5703125 41.14453125 C-123.26996094 40.21511719 -122.96960938 39.28570312 -122.66015625 38.328125 C-115.87917816 19.57035445 -99.50674528 2.56039389 -81.5703125 -5.85546875 C-55.04677319 -16.38521278 -23.93527314 -17.27850265 0 0 Z " fill="#000000" transform="translate(472.5703125,78.85546875)"/>
<path d="M0 0 C8.58323849 7.57982673 14.97313109 15.08267617 20.47265625 25.18359375 C20.95605469 26.06660156 21.43945312 26.94960937 21.9375 27.859375 C31.32774822 46.66841323 32.70809199 70.2175677 26.20458984 90.16455078 C17.84054439 113.2368176 1.83210861 130.03434321 -20.265625 140.3828125 C-38.42562684 148.36856222 -59.86437561 148.81880625 -78.52734375 142.18359375 C-85.52394914 139.35810692 -91.60881307 135.9184183 -97.52734375 131.18359375 C-97.85734375 156.59359375 -98.18734375 182.00359375 -98.52734375 208.18359375 C-113.04734375 208.18359375 -127.56734375 208.18359375 -142.52734375 208.18359375 C-142.52734375 134.92359375 -142.52734375 61.66359375 -142.52734375 -13.81640625 C-128.66734375 -13.81640625 -114.80734375 -13.81640625 -100.52734375 -13.81640625 C-100.03234375 -7.87640625 -100.03234375 -7.87640625 -99.52734375 -1.81640625 C-98.86089844 -2.33589844 -98.19445312 -2.85539062 -97.5078125 -3.390625 C-68.40807325 -25.40874939 -27.90973435 -23.39817666 0 0 Z " fill="#000000" transform="translate(879.52734375,82.81640625)"/>
<path d="M0 0 C15.43677668 12.82110064 26.03939738 30.26243588 28.8125 50.3359375 C30.56265812 74.19960632 26.80196377 96.71690674 10.8125 115.3359375 C10.31621094 115.97402344 9.81992187 116.61210937 9.30859375 117.26953125 C-3.43846225 133.02673542 -22.88203287 141.1439695 -42.3203125 144.94921875 C-69.7242675 147.68961425 -93.65321439 144.36680996 -115.796875 127.328125 C-131.91348413 113.89761739 -142.84478137 94.28903778 -145.1875 73.3359375 C-146.45119198 53.12783536 -143.18573244 36.90624706 -133.1875 19.3359375 C-132.72730469 18.49675781 -132.26710938 17.65757813 -131.79296875 16.79296875 C-121.12910703 -0.89422184 -102.48397744 -12.31670394 -82.875 -17.4140625 C-54.45995547 -24.23050275 -22.99054465 -18.02123421 0 0 Z " fill="#000000" transform="translate(686.1875,83.6640625)"/>
<path d="M0 0 C0.8979126 0.10070801 1.7958252 0.20141602 2.72094727 0.30517578 C11.02990839 1.48434837 18.01271614 4.83271366 23.5 11.3125 C24.13808594 12.0446875 24.77617187 12.776875 25.43359375 13.53125 C28.86937671 18.342994 29.14769775 21.9659651 29.0625 27.8125 C27.94163498 27.81836624 26.82076996 27.82423248 25.66593933 27.83027649 C15.1152559 27.88742964 4.56478005 27.96015222 -5.98569202 28.04821491 C-11.41012405 28.09298854 -16.83447975 28.13222917 -22.2590332 28.15893555 C-27.49167577 28.18489883 -32.72402571 28.2252515 -37.95648766 28.27568626 C-39.95518041 28.29240229 -41.95392382 28.30388698 -43.95267677 28.31011391 C-46.74716675 28.31970362 -49.54090002 28.34770079 -52.33520508 28.38012695 C-53.16598572 28.37869186 -53.99676636 28.37725677 -54.85272217 28.3757782 C-59.03400158 28.33946302 -59.03400158 28.33946302 -62.66187572 30.13820171 C-64.55727429 32.62597388 -64.13938423 34.7842366 -63.9375 37.8125 C-61.23769486 38.71243505 -59.6923223 38.93887766 -56.92356873 38.94380188 C-55.70217949 38.94981415 -55.70217949 38.94981415 -54.45611572 38.95594788 C-53.56623962 38.95541916 -52.67636353 38.95489044 -51.75952148 38.9543457 C-50.34918388 38.95955734 -50.34918388 38.95955734 -48.91035461 38.96487427 C-46.86582977 38.97223152 -44.82129694 38.97757707 -42.77676201 38.98116493 C-39.53503334 38.98833335 -36.29345578 39.0040047 -33.05177307 39.02250671 C-23.83360925 39.07494531 -14.61552643 39.12291169 -5.3972168 39.13842773 C0.24093342 39.14854002 5.87870585 39.17795111 11.51670647 39.21974754 C13.66034009 39.23202033 15.80402719 39.23718564 17.94769478 39.23494911 C20.95845573 39.23258181 23.96814434 39.25487272 26.97875977 39.2824707 C27.85446625 39.27586929 28.73017273 39.26926788 29.63241577 39.26246643 C38.86944151 39.40055307 46.59971559 42.55733269 53.30859375 48.88671875 C61.7044603 58.10534282 62.46887525 67.57237189 62.4375 79.625 C62.43768127 80.68355194 62.43768127 80.68355194 62.43786621 81.76348877 C62.41416932 91.51861499 61.85876581 101.0362859 60.3125 110.6875 C60.15571777 111.67081299 59.99893555 112.65412598 59.83740234 113.66723633 C57.71205432 125.45649905 53.73167096 135.05359873 43.9296875 142.4140625 C34.78103031 148.02130401 23.57058161 148.22581658 13.125 148.9375 C11.28023071 149.06378784 11.28023071 149.06378784 9.39819336 149.19262695 C-1.02637209 149.83189667 -11.43235417 150.00081491 -21.875 150 C-23.00130325 150.00135956 -23.00130325 150.00135956 -24.15036011 150.00274658 C-33.78971301 150.00142527 -43.32664047 149.62420942 -52.9375 148.8125 C-54.06079712 148.7350354 -54.06079712 148.7350354 -55.20678711 148.65600586 C-67.94590084 147.7610209 -79.5436791 143.67131749 -88.32421875 133.98828125 C-99.93322244 118.3315862 -99.29354049 98.36745934 -99.25317383 79.78833008 C-99.2500297 76.77843397 -99.27351112 73.76954009 -99.29882812 70.75976562 C-99.33288379 60.54400249 -98.89342198 50.51914462 -97.60546875 40.37890625 C-97.43075798 38.98538185 -97.43075798 38.98538185 -97.2525177 37.56370544 C-95.32385243 23.83216795 -90.42084297 14.94552464 -79.44140625 6.3203125 C-58.66656671 -6.18996529 -23.23617463 -2.76982424 0 0 Z " fill="#FDFEFE" transform="translate(156.9375,88.1875)"/>
<path d="M0 0 C11.33026598 11.37558705 17.15485719 26.0713073 17.20196533 41.9980011 C17.1911795 43.47831062 17.1911795 43.47831062 17.18017578 44.98852539 C17.18046783 46.05297882 17.18075989 47.11743225 17.18106079 48.21414185 C17.1796765 51.70404443 17.16415779 55.19372883 17.1484375 58.68359375 C17.14470417 61.11453637 17.14185871 63.5454805 17.13986206 65.97642517 C17.13225084 72.35338546 17.11262394 78.73025366 17.0904541 85.10717773 C17.06994151 91.62287145 17.06084878 98.13858013 17.05078125 104.65429688 C17.02937564 117.42322391 16.99421399 130.19205862 16.953125 142.9609375 C3.753125 142.9609375 -9.446875 142.9609375 -23.046875 142.9609375 C-23.541875 135.5359375 -23.541875 135.5359375 -24.046875 127.9609375 C-25.325625 129.1571875 -26.604375 130.3534375 -27.921875 131.5859375 C-44.77405173 146.46633068 -63.45550183 147.97567566 -85.046875 146.9609375 C-89.86370613 146.48559232 -94.43085656 145.41330992 -99.046875 143.9609375 C-99.91699219 143.70570313 -100.78710938 143.45046875 -101.68359375 143.1875 C-113.2991211 139.21232737 -122.74583264 131.01070257 -128.4765625 120.28515625 C-133.73498854 109.07015157 -134.39590528 96.87226688 -131.046875 84.9609375 C-126.18464191 72.47825908 -117.68276215 64.95982321 -105.734375 59.2734375 C-91.13072462 53.05825389 -75.74085755 50.60897311 -60.19140625 47.9609375 C-44.24175359 45.84943511 -44.24175359 45.84943511 -30.296875 38.6484375 C-28.56694205 34.92908166 -28.92854311 32.87509911 -30.046875 28.9609375 C-32.95976418 23.74201105 -37.56397389 21.77082719 -43.046875 19.9609375 C-55.18645115 17.44701982 -67.16503186 18.0947822 -77.796875 24.7109375 C-85.75401229 30.44063671 -89.3154834 37.00335547 -93.046875 45.9609375 C-102.3752069 44.62887835 -111.58179146 42.92448906 -120.796875 40.9609375 C-122.0653125 40.70054688 -123.33375 40.44015625 -124.640625 40.171875 C-125.84203125 39.91664062 -127.0434375 39.66140625 -128.28125 39.3984375 C-129.36631836 39.17027344 -130.45138672 38.94210938 -131.56933594 38.70703125 C-132.38692383 38.46082031 -133.20451172 38.21460938 -134.046875 37.9609375 C-135.64387492 34.76693765 -134.22184036 32.48019034 -133.171875 29.1484375 C-127.2585456 11.45323109 -114.23788122 -0.41518156 -98.046875 -9.0390625 C-67.96952455 -23.05816652 -26.26166916 -22.15201864 0 0 Z " fill="#000000" transform="translate(1056.046875,82.0390625)"/>
<path d="M0 0 C15.84 0 31.68 0 48 0 C53.13563734 10.27127468 58.20793461 20.53598202 63.0625 30.9375 C63.37615509 31.60766144 63.68981018 32.27782288 64.01296997 32.96829224 C69.71158738 45.14579571 75.28616909 57.37831458 80.8347168 69.62475586 C84.14647705 76.93290358 87.4672102 84.2359639 90.875 91.5 C91.19073975 92.17603271 91.50647949 92.85206543 91.83178711 93.54858398 C93.10499654 96.47864718 93.10499654 96.47864718 95 99 C100.28020004 87.51911663 105.55644463 76.03642068 110.82855225 64.55181885 C111.58861178 62.896146 112.34873952 61.24050447 113.10894775 59.5848999 C122.20277722 39.77893964 131.18937413 19.93404104 140 0 C156.17 0 172.34 0 189 0 C187.69588524 3.91234427 186.50656587 7.25254264 184.7421875 10.89453125 C184.06349609 12.3021875 184.06349609 12.3021875 183.37109375 13.73828125 C182.87738281 14.75277344 182.38367187 15.76726562 181.875 16.8125 C181.09189453 18.43285156 181.09189453 18.43285156 180.29296875 20.0859375 C178.84345294 23.08295504 177.39060161 26.07830765 175.93591309 29.07281494 C174.3122572 32.4161653 172.69151449 35.760928 171.0703125 39.10546875 C169.02280843 43.32893789 166.97483295 47.55217661 164.92529297 51.7746582 C160.93018617 60.00692236 156.95264 68.24723516 153 76.5 C148.01994209 86.89792311 142.993629 97.27297441 137.95898438 107.64453125 C133.61874146 116.58657598 129.29361464 125.53543967 125 134.5 C120.40295208 144.09698673 115.77051025 153.67641328 111.125 163.25 C103.68963923 178.57351786 103.68963923 178.57351786 96.26800537 193.90368652 C95.41011627 195.67739614 94.55103085 197.45052698 93.69189453 199.22363281 C90.04031905 206.77991822 86.51811786 214.37741129 83 222 C66.83 222 50.66 222 34 222 C35.47771458 217.56685625 36.94585399 213.87244179 39.02514648 209.75439453 C39.32298035 209.16164734 39.62081421 208.56890015 39.92767334 207.95819092 C40.57027374 206.68055803 41.2147197 205.40385201 41.86083794 204.12799454 C42.886424 202.10253638 43.90686043 200.0745562 44.92604065 198.04586792 C47.45836991 193.00783864 49.99936976 187.97419503 52.54016113 182.94042969 C54.68900923 178.68236339 56.83448303 174.42262898 58.9756031 170.16067123 C59.97542681 168.17388063 60.98008239 166.18958567 61.98497009 164.20535278 C67.90076696 154.26577647 67.90076696 154.26577647 69.50537109 143.43725586 C68.89556396 142.33716187 68.89556396 142.33716187 68.2734375 141.21484375 C67.82492432 140.36817139 67.37641113 139.52149902 66.91430664 138.64916992 C66.40633545 137.75431885 65.89836426 136.85946777 65.375 135.9375 C64.31678248 133.9543122 63.26085426 131.96990143 62.20703125 129.984375 C61.66385254 128.97955078 61.12067383 127.97472656 60.56103516 126.93945312 C58.25041431 122.58851867 56.15557653 118.14605384 54.0625 113.6875 C48.89165818 102.79458057 43.60485223 91.9592444 38.3125 81.125 C36.56887288 77.55475465 34.82538666 73.98444053 33.08203125 70.4140625 C32.65193253 69.53323502 32.2218338 68.65240753 31.77870178 67.74488831 C26.07290562 56.05648622 20.39306707 44.35552838 14.73136902 32.64570618 C12.90474606 28.86796002 11.07396239 25.09227001 9.23986816 21.31814575 C7.82344011 18.40111627 6.4120982 15.48162737 5 12.5625 C4.48888672 11.51320313 3.97777344 10.46390625 3.45117188 9.3828125 C2.99291016 8.43277344 2.53464844 7.48273438 2.0625 6.50390625 C1.66160156 5.67705322 1.26070312 4.8502002 0.84765625 3.99829102 C0 2 0 2 0 0 Z " fill="#000000" transform="translate(1083,69)"/>
<path d="M0 0 C7.23857854 5.51735302 13.58399481 11.69014693 15.6875 20.8125 C16.13201693 25.44443191 16.15195178 30.03709261 16.125 34.6875 C16.14498047 35.90308594 16.16496094 37.11867187 16.18554688 38.37109375 C16.17982372 48.98181712 14.07582275 57.19072062 6.66015625 65 C-4.73717941 75.47200742 -18.27103104 78.27503626 -33.3359375 78.0234375 C-44.48407674 77.43208237 -54.08648474 72.60155342 -61.6875 64.4375 C-64.95417105 60.51881195 -67.45596802 56.56411898 -69.3125 51.8125 C-69.66828125 50.94367188 -70.0240625 50.07484375 -70.390625 49.1796875 C-73.35179151 38.36390134 -72.63828492 24.69608832 -67.3125 14.8125 C-66.91160156 14.02875 -66.51070313 13.245 -66.09765625 12.4375 C-60.25058549 2.40426553 -50.25459407 -3.17075444 -39.3125 -6.1875 C-25.95344657 -9.47178556 -11.5183151 -7.53862328 0 0 Z " fill="#FEFEFE" transform="translate(460.3125,112.1875)"/>
<path d="M0 0 C9.01662231 8.74163704 13.81104656 18.23549753 14.6171875 30.80078125 C14.65134249 43.69428849 10.62041594 55.48491835 1.66015625 64.9375 C-8.52243555 74.00606544 -19.37975823 77.45859011 -32.890625 77.08984375 C-45.12279115 75.89679615 -55.37396207 69.87299546 -63.25 60.5 C-70.50670259 50.29526199 -73.72733322 38.96345725 -71.89453125 26.4765625 C-68.99033328 13.73660012 -62.68359062 3.9409799 -51.875 -3.6875 C-35.65914744 -13.68821743 -14.49779725 -12.37722392 0 0 Z " fill="#FEFEFE" transform="translate(657.375,113.25)"/>
<path d="M0 0 C9.07115012 7.04808786 14.41106267 16.15069218 17.125 27.25 C18.36011084 41.20962489 15.86397353 52.0658149 7.125 63.25 C6.64675781 63.86617188 6.16851563 64.48234375 5.67578125 65.1171875 C-0.16630751 71.73920246 -10.10056611 77.13449058 -18.875 78.25 C-33.14124386 79.09782249 -46.08555699 76.93524163 -57.20703125 67.2109375 C-65.76762447 58.2215205 -67.5662523 48.94386702 -67.45141602 36.80029297 C-67.43751314 34.7519354 -67.47176749 32.70813308 -67.50976562 30.66015625 C-67.57196258 19.96939807 -64.94742277 11.7943486 -57.671875 3.84375 C-41.44203492 -10.5514125 -17.79018623 -12.16341131 0 0 Z " fill="#FEFEFE" transform="translate(847.875,111.75)"/>
<path d="M0 0 C0.33 0 0.66 0 1 0 C1.08767555 3.37483413 1.14061628 6.74937215 1.1875 10.125 C1.21263672 11.07632813 1.23777344 12.02765625 1.26367188 13.0078125 C1.33131871 19.50190909 0.53973934 23.65185557 -3.47265625 28.94140625 C-13.08672562 38.74444995 -26.17657236 42.23192181 -39.5859375 43 C-46.49636791 43 -54.54043935 42.84249523 -60.6875 39.3125 C-63.65559253 36.34440747 -64.89952086 34.05801683 -66 30 C-65.7324531 26.18745672 -65.09147035 24.0536596 -62.30859375 21.3671875 C-51.56573621 13.49304883 -37.13826722 11.83207222 -24.37304688 9.37695312 C-11.16540843 6.88774744 -11.16540843 6.88774744 0 0 Z " fill="#FEFEFE" transform="translate(1030,150)"/>
<path d="M0 0 C3.48326597 0.85529699 4.97293913 2.60978164 6.97265625 5.484375 C7.55257028 9.62661806 7.31815299 10.96612989 4.97265625 14.484375 C4.66571333 16.66659677 4.66571333 16.66659677 4.59765625 18.984375 C4.19847754 23.21016344 4.19847754 23.21016344 2.22265625 25.609375 C-0.64808798 26.72577554 -2.13611415 26.47347986 -5.02734375 25.484375 C-7.41641278 23.09530597 -7.31268056 22.31512204 -7.52734375 19.046875 C-7.75802558 15.54627816 -7.98884938 14.54211655 -10.02734375 11.484375 C-10.50828665 7.79714609 -10.25651874 5.92362706 -8.52734375 2.609375 C-5.667774 0.17874072 -3.74624162 -0.25208355 0 0 Z " fill="#04AFD6" transform="translate(186.02734375,162.515625)"/>
</svg>
