<?xml version="1.0" encoding="UTF-8"?>
<svg version="1.1" xmlns="http://www.w3.org/2000/svg" width="1280" height="399">
<path d="M0 0 C1.40728615 -0.01475876 1.40728615 -0.01475876 2.84300232 -0.02981567 C54.15984725 -0.45717141 101.61050704 10.256014 142.97265625 42.23828125 C143.53855469 42.67575684 144.10445313 43.11323242 144.6875 43.56396484 C159.10124592 54.88843368 172.50434839 68.17367334 182.97265625 83.23828125 C183.69195312 84.26308594 184.41125 85.28789063 185.15234375 86.34375 C201.36144169 110.48434604 212.43047236 137.46895678 216.97265625 166.23828125 C217.144021 167.29208984 217.144021 167.29208984 217.31884766 168.3671875 C225.09974097 218.44155867 211.8218268 270.19962628 182.55322266 311.22802734 C175.99798513 320.13224441 168.59804542 328.24819955 160.97265625 336.23828125 C160.07160156 337.21861328 160.07160156 337.21861328 159.15234375 338.21875 C127.86486094 371.31430343 76.61920643 392.11689434 31.70056152 394.3513031 C29.3339072 394.41758978 26.96903944 394.45445673 24.6015625 394.4765625 C23.73000519 394.48635635 22.85844788 394.49615021 21.96047974 394.50624084 C2.63178074 394.67866332 -16.08532093 394.55868014 -35.02734375 390.23828125 C-36.45264404 389.91682129 -36.45264404 389.91682129 -37.90673828 389.58886719 C-70.87385453 381.89448674 -101.47434519 366.38663312 -127.02734375 344.23828125 C-128.48140625 342.97951172 -128.48140625 342.97951172 -129.96484375 341.6953125 C-132.35515552 339.57828333 -134.70105114 337.42524962 -137.02734375 335.23828125 C-137.68605469 334.63242187 -138.34476563 334.0265625 -139.0234375 333.40234375 C-164.22020523 309.37162362 -180.66998521 275.60487813 -189.02734375 242.23828125 C-189.23907227 241.40071289 -189.45080078 240.56314453 -189.66894531 239.70019531 C-196.18158216 212.44207499 -195.97967084 179.37255854 -189.02734375 152.23828125 C-188.78064941 151.27486816 -188.53395508 150.31145508 -188.27978516 149.31884766 C-184.76480632 136.06808948 -180.07356786 123.53114119 -174.02734375 111.23828125 C-173.68477539 110.53010254 -173.34220703 109.82192383 -172.98925781 109.09228516 C-160.63432186 83.777908 -142.23610693 61.52125465 -120.02734375 44.23828125 C-119.49431641 43.81820801 -118.96128906 43.39813477 -118.41210938 42.96533203 C-85.2339691 16.9834957 -42.3651099 0.36622481 0 0 Z M-83.83984375 107.17578125 C-109.31851913 136.88523299 -118.4336338 172.40919084 -115.84130859 211.00830078 C-113.39017242 236.40326969 -102.55043869 260.9275476 -86.02734375 280.23828125 C-85.186875 281.24117187 -84.34640625 282.2440625 -83.48046875 283.27734375 C-62.09239598 308.12078206 -30.49483937 323.22283686 1.97265625 326.23828125 C32.74125257 328.19940532 62.99102299 320.63814505 87.97265625 302.23828125 C88.78605469 301.64789063 89.59945312 301.0575 90.4375 300.44921875 C103.0014308 290.87863938 113.39848852 279.44713424 121.97265625 266.23828125 C122.59527344 265.31144531 123.21789062 264.38460937 123.859375 263.4296875 C135.13138168 245.57178927 141.31140656 223.2880632 141.97265625 202.23828125 C142.02421875 201.0678125 142.07578125 199.89734375 142.12890625 198.69140625 C143.01158167 162.06037649 129.59503846 128.78624409 104.41796875 102.34643555 C81.32330524 78.71653387 49.85795781 65.48238739 16.94726562 64.88671875 C-22.08778423 64.65653664 -56.92005661 78.33315217 -83.83984375 107.17578125 Z " fill="#4A2389" transform="translate(193.02734375,-0.23828125)"/>
<path d="M0 0 C0.60134766 0.4316748 1.20269531 0.86334961 1.82226562 1.30810547 C43.03373503 31.18992119 69.82838795 76.9763426 78.03515625 127.015625 C85.52420737 177.5471422 73.61936045 230.41621441 43.2734375 271.7890625 C25.17776557 295.6730002 2.67793819 315.15972512 -23.95996094 328.94335938 C-25.8408107 329.91754771 -27.70635753 330.91586438 -29.5703125 331.921875 C-39.0411623 336.88802826 -48.88445992 340.57475461 -59 344 C-60.05743408 344.35989014 -60.05743408 344.35989014 -61.13623047 344.72705078 C-73.48122764 348.84597543 -86.14265947 351.11080322 -99 353 C-99.68529785 353.10530029 -100.3705957 353.21060059 -101.07666016 353.3190918 C-156.20046781 360.68975766 -214.15676476 343.81907922 -258.19238281 310.41699219 C-280.41582121 292.99602562 -297.95579475 272.01882152 -311 247 C-311.34272949 246.34725098 -311.68545898 245.69450195 -312.03857422 245.02197266 C-335.65087168 199.39112303 -338.75626969 145.86088643 -323.6875 97.0546875 C-315.44333818 71.69027926 -302.34498824 49.16791417 -285 29 C-284.16984375 28.03449219 -283.3396875 27.06898437 -282.484375 26.07421875 C-266.45822425 7.82906251 -246.47394021 -5.91389902 -225 -17 C-224.3203418 -17.35545898 -223.64068359 -17.71091797 -222.94042969 -18.07714844 C-203.15422594 -28.31139175 -181.86849223 -34.2022585 -160 -38 C-158.92685547 -38.19698486 -158.92685547 -38.19698486 -157.83203125 -38.39794922 C-103.43174645 -48.07544499 -44.2722537 -31.93174691 0 0 Z M-223.43652344 68.20019531 C-227.7420511 73.15652728 -231.40963677 78.51435209 -235 84 C-235.54914063 84.79148438 -236.09828125 85.58296875 -236.6640625 86.3984375 C-254.59894146 113.73234394 -258.92479236 150.84362921 -252.51123047 182.40527344 C-244.8889707 216.31377133 -225.62060727 246.60419277 -196.046875 265.56640625 C-189.5969375 269.52659295 -182.90486914 272.91131547 -176 276 C-174.92363281 276.48210937 -173.84726563 276.96421875 -172.73828125 277.4609375 C-141.52499294 290.38488373 -105.91600548 288.71507894 -75 276 C-63.23902971 270.7818526 -52.77078569 264.36030481 -43 256 C-41.99710938 255.15953125 -40.99421875 254.3190625 -39.9609375 253.453125 C-15.24309215 232.173177 0.24132134 200.38954639 3 168 C4.99089233 131.112252 -3.59609545 96.20485302 -28.40356445 67.94628906 C-50.28815496 43.75129172 -81.36503239 26.59476492 -114.34814453 24.81982422 C-156.85128152 23.2493865 -194.39511554 36.41280151 -223.43652344 68.20019531 Z " fill="#4A2389" transform="translate(1200,40)"/>
<path d="M0 0 C55.77 0 111.54 0 169 0 C169 20.79 169 41.58 169 63 C156.13 63.33 143.26 63.66 130 64 C131.16273438 66.55621094 132.32546875 69.11242187 133.5234375 71.74609375 C141.7928482 89.94971946 149.99749672 108.17730665 158 126.5 C164.10853578 140.48366684 170.31765288 154.4173549 176.625 168.3125 C182.44080607 181.12618893 188.23066802 193.94986119 193.9375 206.8125 C194.25126587 207.51934937 194.56503174 208.22619873 194.88830566 208.95446777 C198.13232758 216.26359879 201.37008093 223.57549934 204.60498047 230.88867188 C206.90584909 236.09011869 209.20936894 241.29038555 211.51419067 246.49008179 C212.41653558 248.52738479 213.31781299 250.56516096 214.21798706 252.60342407 C215.4735471 255.44636885 216.73250544 258.28778601 217.9921875 261.12890625 C218.36850815 261.98337341 218.7448288 262.83784058 219.1325531 263.71820068 C219.48181351 264.50414612 219.83107391 265.29009155 220.19091797 266.09985352 C220.644814 267.12611595 220.644814 267.12611595 221.10787964 268.17311096 C222.07572976 270.25804429 222.07572976 270.25804429 224 273 C230.9448878 256.98235986 237.88378886 240.96214463 244.8125 224.9375 C245.14537018 224.16764771 245.47824036 223.39779541 245.82119751 222.60461426 C248.21429631 217.06981401 250.60717285 211.53491769 253 206 C255.72901575 199.68743474 258.45812666 193.37491066 261.1875 187.0625 C261.68934311 185.90184525 261.68934311 185.90184525 262.20132446 184.71774292 C267.15308343 173.26589223 272.11144134 161.81692014 277.07373047 150.36962891 C281.32517729 140.56116256 285.56976796 130.74973878 289.8125 120.9375 C290.14283234 120.17359955 290.47316467 119.4096991 290.81350708 118.62265015 C294.3432756 110.45997303 297.87205854 102.29687171 301.39845276 94.13273621 C302.88605923 90.68887878 304.3740831 87.24520178 305.8621521 83.80154419 C306.5756007 82.1501669 307.28883927 80.49869885 308.00186157 78.84713745 C308.98901426 76.56063219 309.97685414 74.27442498 310.96484375 71.98828125 C311.25884064 71.30680023 311.55283752 70.62531921 311.85574341 69.92318726 C313.88613844 65.22772311 313.88613844 65.22772311 315 63 C298.83 63 282.66 63 266 63 C266 42.21 266 21.42 266 0 C312.2 0 358.4 0 406 0 C406 43.68741677 406 43.68741677 394.55078125 64.31640625 C390.35296157 72.16401141 386.69602403 80.17635454 383.15527344 88.33782959 C381.52321262 92.08953145 379.8606528 95.82764163 378.19921875 99.56640625 C377.86240082 100.32550293 377.52558289 101.08459961 377.17855835 101.86669922 C373.00235139 111.26700749 368.74854161 120.63222826 364.5 130 C358.59606613 143.01990716 352.72978007 156.05502108 346.9375 169.125 C339.40073848 186.13097134 331.77052334 203.09410521 324.12834167 220.05291748 C320.90933694 227.19767382 317.70260986 234.34787828 314.5 241.5 C310.92935156 249.47403163 307.35124814 257.44460953 303.76171875 265.41015625 C296.16433099 282.27131437 288.59024872 299.14162371 281.0987854 316.05014038 C274.63806678 330.6266817 268.06816054 345.15314708 261.46899414 359.66748047 C257.20034911 369.06614749 253.01106999 378.48814587 249 388 C242.63780503 388.11509745 237.05542858 387.18508784 230.875 385.8125 C229.85180664 385.58618896 228.82861328 385.35987793 227.77441406 385.12670898 C220.17132893 383.38629456 213.08900349 381.30487346 206 378 C205.06414062 377.58363281 204.12828125 377.16726563 203.1640625 376.73828125 C185.38003477 368.0455282 176.3062616 350.45535921 168.14257812 333.38378906 C166.89378998 330.7784114 165.62710282 328.18214976 164.359375 325.5859375 C157.65765861 311.80408982 151.26866304 297.89075078 144.95249939 283.92976379 C144.63172928 283.22075424 144.31095917 282.51174469 143.98046875 281.78125 C143.65675797 281.06567429 143.33304718 280.35009857 142.99952698 279.61283875 C139.24036231 271.31037744 135.43387792 263.02974321 131.625 254.75 C130.90926062 253.1936851 130.19352169 251.63737 129.4777832 250.08105469 C128.03785517 246.9504023 126.59761126 243.81989543 125.15722656 240.68945312 C121.95551723 233.73041075 118.75815483 226.76937124 115.56048584 219.80847168 C113.790504 215.95556503 112.02023753 212.10278917 110.25 208.25 C109.5416653 206.70833396 108.83333197 205.16666729 108.125 203.625 C107.774375 202.861875 107.42375 202.09875 107.0625 201.3125 C103.87499999 194.37499998 103.87499999 194.37499998 102.81251526 192.06253052 C102.10413379 190.52076087 101.39574959 188.97899248 100.68736267 187.43722534 C98.91724352 183.58464448 97.14717162 179.73204192 95.37719727 175.87939453 C92.18125078 168.92300027 88.98496099 161.96676481 85.78691101 155.01133728 C84.00353995 151.13266577 82.22043689 147.25387111 80.4375 143.375 C80.08692535 142.61230804 79.73635071 141.84961609 79.37515259 141.06381226 C73.79655095 128.92560938 68.23864156 116.77804341 62.68917847 104.62649536 C56.49618156 91.06720658 50.25667872 77.53006774 44 64 C22.22 63.505 22.22 63.505 0 63 C0 42.21 0 21.42 0 0 Z " fill="#4A2389" transform="translate(432,11)"/>
</svg>
