<?xml version="1.0" encoding="utf-8"?>
<!-- Generator: Adobe Illustrator 28.0.0, SVG Export Plug-In . SVG Version: 6.00 Build 0)  -->
<svg version="1.1" xmlns="http://www.w3.org/2000/svg" xmlns:xlink="http://www.w3.org/1999/xlink" x="0px" y="0px"
	 viewBox="0 0 1024 1024" style="enable-background:new 0 0 1024 1024;" xml:space="preserve">
<style type="text/css">
	.st0{fill:#204ECE;}
</style>
<g id="Layer_1">
	<g>
		<path class="st0" d="M765.1,680.5c-6.7-91.5-9.8-183.2-14.1-274.8c-0.5-10.4-4.6-14-14.8-13.9c-28.2,0.3-56.4-0.2-84.6-0.3
			c-3.2-29.6-19.4-55.4-25.2-84.3c-1.4-7.2-5.4-14.5-10-20.3c-6.2-7.8-6.1-12.6,1-20.2c27-28.5,44.6-62.4,53.8-100.6
			c16-60.9-9.9-142.2-75.8-71.3c-31,35.5-47.3,77.5-54.6,123.4c-1.4,28.7-15.9,17.7-36.7,21.3c-9,2.2-11.5-1.3-12.3-10
			c-7.3-59.6-30.8-127.1-86-157.9c-19.5-9.6-33.7-4.1-42.3,15.7c-20.8,64.2,7.4,132.1,50.3,180.3c4.3,4.8,9.1,8.6,3.5,15.9
			c-18.5,27.6-35,79.1-37.8,108.9c0,0-3.3,0.5-16.5-0.1c-22.8-1.1-45.6-0.3-68.5-0.4c-21.8-0.1-21.6-0.1-22.7,22.3
			c-4.2,87.6-8.4,175.2-13,262.8c-2.9,56.3,26,87.7,82.6,87.9c114.1,0.2,228.3-1.1,342.3,0.8C727.2,766.3,768.5,727.8,765.1,680.5z
			 M427.6,264.6c-42.5-43.6-71-107.7-54.3-168.5c6.3-18.6,16-22.1,32.6-11.1c50.3,34.6,70.8,98.4,75.7,156.8
			c0.7,10.6,4.3,14.4,15.1,11.7c12.7-3.2,25.9-3.5,38.6-0.2c10.6,2.8,13.4-1.8,14.4-11.2c5.8-57.9,25.1-121.1,74.9-156
			c45.4-32.1,41.8,58.9,33.6,82.6c-18.6,81.9-77.8,100.6-57.3,116.8c8.1,8.1,12.8,18.3,16.5,29c5.1,14.8,4,31.3,15.8,44.5
			c4.6,5.1,5.9,15.9-9.2,14.9c-11.4-0.8-20.3,6.1-24,17.8c-20.9,0.1-41.8,0.4-62.7,0.2c-5.1,0-12.3,2.6-15-2.2
			c-3.4-6.2,5.1-7.9,7.9-11.9c6.2-5.9,0.1-13.7-6.8-8.4c-10.9,9.2-17.1-5.9-23.1,0.6c-5.1,10,12.8,11.5,10.9,21.7
			c-26.4,0.2-52.9,1.6-79.3-0.5c-7-12.9-17.4-17.3-31.7-17.7c-5.5-0.5-5.7-5.2-3.8-9.4c1.2-2.8,2.9-5.4,4.4-8.1
			c12.7-22,8.4-50.2,28.4-68.7C437.5,278.3,435.3,272.3,427.6,264.6z M448.1,404c45.2,0.7,90.4,0.5,135.6,0.1
			c10.1-0.1,13.2,2.4,11.5,13c-11.7,63.3-9.6,195.1-94.5,174.5c-12.1-3-22.5-9.8-29-20.2c-13.4-20.5-18.8-45.3-22.9-69.1
			c-5.4-27.8-8.2-56-12.3-84C435,408.3,436.4,403.8,448.1,404z M533,400.1C533,400.1,533,400.1,533,400.1L533,400.1L533,400.1z
			 M414.8,375.7C414.8,375.7,414.8,375.7,414.8,375.7C414.8,375.7,414.8,375.7,414.8,375.7z M690.6,753.2
			c-474.1-23.8-429.2,113.9-407-336.3c0.3-9.8,3.2-13.3,13.3-12.9c22.4,0.7,44.8,0.8,67.1-0.1c12-0.5,16.7,2.5,18.9,15.3
			c10.4,61.8,16.2,128.5,57.9,178.8c39,48.4,100.6,47.2,141.9,7c26.8-24.4,42.4-64.6,49.6-100.4c33.2-116.7-18.6-99,96.7-100.5
			c7.4-0.1,10.1,2.5,10.5,10c4.4,92.1,9.2,184.2,13.6,276.3C754.3,719,731.5,753.7,690.6,753.2z"/>
		<path class="st0" d="M586.3,261.4c39.6-35.7,65.4-87.3,59.8-141.6c-0.2-17.4-10.5-22.1-22-7.8c-35,33.4-49.7,75.4-51.1,122.8
			C573.2,244.4,569,275.6,586.3,261.4z"/>
		<path class="st0" d="M442.7,259.3c8.8,10,18.1,7,16.4-7c0.1-40.1-6.8-78.4-29.3-112.6c-7.1-10.8-14.4-21.6-24.5-30.1
			c-19.9-18.4-20.5,11.7-21.1,25.5C386.3,185.1,405.9,226.2,442.7,259.3z"/>
		<path class="st0" d="M572.4,368.4c17.9,0.8,18.2-33.8,0.2-33.5C554.7,333.8,555.4,369.5,572.4,368.4z"/>
		<path class="st0" d="M446.3,353.4c-0.1,22.6,26.6,18.3,25.6-2.1C471.8,326.3,444.3,331.1,446.3,353.4z"/>
	</g>
</g>
<g id="Layer_2">
	<g>
		<g>
			<path class="st0" d="M307.3,827.4c-11.5,0-12.2,12.6-13.2,21.3c-1.3,9.8-4.3,58-14.3,59.7c-8.8,2-9.3-9.4-10.6-15.3
				c-4.6-20-6.7-40.8-12.8-60.4c-1.9-5-5.8-8.8-11.5-9.3c-9.6-1.2-15.4,5.4-17.9,13.9c-5.1,18.9-8.4,38.2-12.7,57.3
				c-1,4.2-1.6,8.8-3.7,12.6c-2.2,4.3-8.2,5.1-11.4,1.5c-2.9-3.3-3.1-8.2-3.6-12.4c-1.6-18.5-2.4-37-4-55.5
				c-0.3-2.8-0.6-5.7-1.7-8.3c-2.1-6.4-10.6-8.4-16.2-5.9c-4.3,1.8-5.9,7-6.2,11.5c-1.6,29.1-1.8,70.6,14.3,95.8
				c5.1,6.8,15.4,8.5,23.2,6.4c6.5-1.6,11.6-6.2,15-11.9c5.7-9.4,7.3-20,10-30.3c2.7-10.1,3.1-19.8,6.6-30.4
				c0.9-2.2,4.6-14.4,7.8-9.4c7.7,19.3,6.7,39.9,13.4,59.1c1.8,5.5,3.6,11,6.9,15.2c4.7,6.7,15.4,8.8,23.1,6.3
				c26.2-8.1,31.1-67.3,31.7-90.7c0.5-9.2-0.2-20.8-12.2-20.8L307.3,827.4z"/>
			<path class="st0" d="M401,826.8c-45.2-0.2-78.9,35.3-67.4,79.8c7.1,29.4,36.7,47.1,67.1,43.7c43-3,69.9-26.5,69.7-63.7
				c0-38-32.2-60.7-69.2-59.8L401,826.8z M400.4,925.8c-19,0.5-39.1-16.7-40.7-34.3c-2-23.4,14.2-44.8,38.8-46.2
				c17.1-1.6,34.7,7.2,41.8,23.1c3.2,6.7,4.5,15.2,3.6,23c-2.1,22.2-21.5,34.8-43.3,34.5L400.4,925.8z"/>
		</g>
		<g>
			<path class="st0" d="M590.7,830.2c-9.6,0.3-10.8,10.2-10.6,17.8c0.3,11.5-0.3,21.8,0.2,33.5c0.3,5.7,1.5,12,0.1,17.5
				c-2.3,8.5-13.1,6.8-17.5,0.8c-5.2-6.1-9.2-14.2-14.3-20.6c-12.6-15.8-23.5-41-42.5-49.4c-11.9-3.8-18.4,4.3-19.2,15.4
				c-4,30.4-4,60.9,5.2,90.7c1.6,5.7,6.7,12.7,13,8.2c3.7-2.5,6.2-6.9,6.4-11.4c-0.3-18-0.9-36-1.4-54c-0.4-7.3,1.2-15.9,9.8-9.1
				c15,20.7,28.3,42.9,45.7,61.8c4,4.4,8.4,9.2,14.4,10.6c10.1,2.4,19.9-4.9,21.6-14.9c4.4-27,3-54.6,1.9-81.8
				c-0.1-8-3.4-15.6-12.6-15.2L590.7,830.2z"/>
			<path class="st0" d="M854.2,839c-4.1-17-16.2-10.3-20.5,2.2c-4.2,11.6-1.1,23.9-2.4,35.9c-1.9,9.8-2.8,20-8.4,28.8
				c-4,6.4-10,11.6-17.7,12.7c-10.1,1.6-20.3-2.7-25.2-11.7c-11.2-20.7-5.7-45.2-9.6-67.5c-0.6-3.6-1.8-7.6-5.1-9.7
				c-5.6-3.5-13.5-0.8-16.1,5.3c-0.9,1.8-1.5,3.9-1.9,6c-4,27-3.8,54.4,10.2,79c8.1,14.3,23.6,23.6,39.9,24.8
				c20.3,1.7,37.8-8.2,46.4-26.7c12.6-24.2,16.2-52.1,10.3-78.9L854.2,839z"/>
			<path class="st0" d="M722.4,829.4c-29.5-5.4-59.5-5.3-88.8,1.7c-4.5,1.2-10.1,2.5-12.4,6.8c-1.5,3-0.9,7.3,1.7,9.7
				c6.9,5.2,16.7,1.5,24.8,1.1c18.7-1.4,14.3,21.4,14.1,33.5c-0.1,6.4-0.1,12.6-0.1,18.9c0,7.7-0.1,15.5,0,23.3
				c0.2,5.2-0.3,11.2,2.5,15.7c3.1,5,12.3,5.4,16,1c2.8-3.1,3.4-7.8,3.9-11.9c1.8-17.3,3.3-34.4,4.7-51.8c0.7-6.3,1-14.6,4-19.6
				c3.8-7.4,20.3-7,29.1-8.4c4.8-0.5,9.7-2.7,10.4-7.9c1.2-6.4-3.8-11-9.7-12.2L722.4,829.4z"/>
		</g>
	</g>
</g>
</svg>
