<?xml version="1.0" encoding="UTF-8"?>
<svg xmlns="http://www.w3.org/2000/svg" width="1024" height="1024" viewBox="0 0 1024 1024">
  <defs>
    <style>
      .cls-1 {
        fill: #9eb6f8;
        stroke-width: 0px;
      }
    </style>
  </defs>
  <g id="Layer_1" data-name="Layer 1">
    <g>
      <path class="cls-1" d="m765.09,680.53c-6.66-91.46-9.78-183.18-14.06-274.81-.48-10.37-4.61-14.02-14.82-13.91-28.19.3-56.38-.15-84.57-.31-3.21-29.61-19.42-55.35-25.17-84.28-1.43-7.19-5.42-14.48-10.04-20.29-6.17-7.78-6.13-12.65,1.04-20.22,27.01-28.5,44.64-62.39,53.84-100.57,16.03-60.94-9.9-142.16-75.85-71.33-31.02,35.47-47.34,77.46-54.63,123.44-1.44,28.69-15.92,17.73-36.72,21.28-9.01,2.21-11.5-1.27-12.27-9.99-7.26-59.62-30.78-127.14-86.03-157.86-19.53-9.58-33.69-4.11-42.3,15.72-20.79,64.16,7.39,132.05,50.31,180.26,4.26,4.76,9.05,8.61,3.52,15.89-18.52,27.58-34.95,79.15-37.83,108.85,0,0-3.26.52-16.47-.11-22.77-1.08-45.63-.31-68.46-.4-21.81-.09-21.63-.14-22.71,22.27-4.23,87.59-8.38,175.19-12.97,262.77-2.95,56.27,26.02,87.74,82.61,87.85,114.12.24,228.26-1.11,342.34.8,43.37.73,84.66-37.83,81.22-85.06Zm-337.51-415.94c-42.54-43.56-70.98-107.74-54.3-168.53,6.33-18.61,15.98-22.07,32.55-11.13,50.27,34.62,70.81,98.39,75.68,156.75.74,10.64,4.28,14.43,15.1,11.67,12.72-3.25,25.87-3.49,38.6-.16,10.59,2.77,13.42-1.75,14.37-11.24,5.81-57.88,25.09-121.05,74.92-156.01,45.4-32.14,41.78,58.87,33.61,82.65-18.63,81.94-77.77,100.58-57.33,116.76,8.1,8.1,12.79,18.34,16.46,28.96,5.12,14.8,3.97,31.34,15.76,44.5,4.6,5.14,5.94,15.92-9.22,14.93-11.45-.75-20.26,6.05-23.99,17.76-20.89.12-41.78.39-62.67.24-5.12-.04-12.28,2.56-14.96-2.24-3.43-6.16,5.08-7.87,7.85-11.89,6.25-5.9.07-13.65-6.76-8.42-10.87,9.19-17.14-5.91-23.12.57-5.13,10.01,12.83,11.48,10.9,21.65-26.43.2-52.87,1.61-79.29-.47-7.02-12.88-17.43-17.33-31.65-17.66-5.47-.52-5.74-5.21-3.78-9.4,1.16-2.79,2.88-5.42,4.45-8.1,12.68-21.99,8.43-50.19,28.41-68.74,8.34-8.78,6.12-14.77-1.59-22.44Zm20.54,139.39c45.19.65,90.39.54,135.58.13,10.13-.09,13.23,2.37,11.49,12.95-11.67,63.3-9.62,195.12-94.5,174.52-12.06-2.99-22.51-9.78-29.01-20.22-13.39-20.46-18.76-45.28-22.89-69.14-5.35-27.82-8.23-56.02-12.27-84.05-1.56-9.93-.16-14.37,11.6-14.2Zm84.9-3.91s.02.03.02.03h0l-.02-.03Zm-118.21-24.36s-.03-.01-.05-.02c0,0,.05.02.05.02Zm275.81,377.48c-474.13-23.8-429.16,113.94-406.97-336.26.33-9.78,3.15-13.26,13.28-12.95,22.36.69,44.8.83,67.14-.15,11.97-.52,16.7,2.53,18.85,15.31,10.38,61.76,16.21,128.51,57.87,178.84,38.95,48.41,100.6,47.2,141.88,7.01,26.76-24.37,42.38-64.63,49.6-100.45,33.18-116.66-18.55-98.99,96.67-100.51,7.41-.11,10.09,2.47,10.45,10.01,4.39,92.12,9.24,184.21,13.57,276.33,1.35,28.65-21.45,63.34-62.35,62.8Z"/>
      <path class="cls-1" d="m586.29,261.39c39.62-35.66,65.44-87.31,59.76-141.59-.25-17.38-10.53-22.1-21.96-7.8-35.05,33.37-49.72,75.4-51.12,122.78.22,9.62-4,40.82,13.32,26.61Z"/>
      <path class="cls-1" d="m442.75,259.28c8.79,10.04,18.09,6.99,16.35-6.95.14-40.05-6.81-78.36-29.25-112.55-7.12-10.84-14.43-21.58-24.45-30.1-19.92-18.42-20.49,11.71-21.1,25.46,1.99,49.94,21.65,91.09,58.45,124.15Z"/>
      <path class="cls-1" d="m572.38,368.4c17.9.79,18.22-33.78.19-33.51-17.88-1.07-17.2,34.63-.19,33.51Z"/>
      <path class="cls-1" d="m446.27,353.36c-.09,22.6,26.58,18.29,25.58-2.15-.04-24.91-27.6-20.08-25.58,2.15Z"/>
    </g>
  </g>
  <g id="Layer_2" data-name="Layer 2">
    <g>
      <g>
        <path class="cls-1" d="m307.34,827.44c-11.52,0-12.2,12.6-13.23,21.27-1.31,9.82-4.32,58.05-14.26,59.72-8.78,1.98-9.26-9.4-10.6-15.32-4.59-20.01-6.71-40.77-12.77-60.41-1.95-5-5.81-8.78-11.46-9.34-9.62-1.2-15.43,5.35-17.86,13.85-5.1,18.91-8.43,38.21-12.74,57.32-.97,4.19-1.6,8.85-3.71,12.62-2.2,4.34-8.25,5.07-11.42,1.45-2.86-3.27-3.1-8.23-3.55-12.43-1.56-18.51-2.45-36.97-3.95-55.45-.28-2.78-.65-5.7-1.66-8.26-2.09-6.43-10.57-8.44-16.21-5.86-4.35,1.8-5.87,6.98-6.17,11.48-1.55,29.1-1.82,70.57,14.28,95.83,5.11,6.76,15.44,8.46,23.22,6.37,6.47-1.59,11.56-6.17,14.97-11.86,5.68-9.41,7.33-19.97,10.01-30.28,2.73-10.09,3.11-19.75,6.61-30.43.88-2.15,4.58-14.43,7.81-9.4,7.66,19.29,6.75,39.94,13.43,59.1,1.76,5.48,3.61,11.04,6.86,15.23,4.67,6.75,15.42,8.78,23.07,6.35,26.24-8.07,31.12-67.26,31.71-90.73.51-9.24-.21-20.83-12.18-20.82h-.18Z"/>
        <path class="cls-1" d="m401.01,826.82c-45.22-.18-78.89,35.32-67.44,79.76,7.05,29.45,36.67,47.1,67.06,43.69,42.98-3.01,69.89-26.48,69.74-63.69.02-38.04-32.21-60.69-69.16-59.76h-.19Zm-.59,98.97c-19,.5-39.13-16.72-40.68-34.32-1.96-23.45,14.17-44.79,38.77-46.23,17.13-1.65,34.67,7.18,41.78,23.06,3.2,6.74,4.48,15.21,3.58,23-2.09,22.16-21.45,34.8-43.26,34.5h-.19Z"/>
      </g>
      <g>
        <path class="cls-1" d="m590.7,830.2c-9.6.32-10.78,10.2-10.63,17.76.25,11.47-.34,21.79.18,33.51.35,5.66,1.52,11.98.15,17.46-2.27,8.49-13.07,6.78-17.52.85-5.25-6.11-9.21-14.19-14.35-20.57-12.55-15.84-23.47-41.01-42.48-49.39-11.91-3.83-18.35,4.26-19.15,15.45-4.04,30.4-4.04,60.89,5.2,90.66,1.61,5.7,6.74,12.71,13.02,8.24,3.74-2.46,6.15-6.93,6.37-11.39-.3-17.97-.94-35.98-1.43-53.98-.4-7.3,1.22-15.91,9.85-9.08,15.03,20.71,28.31,42.86,45.74,61.81,3.98,4.44,8.38,9.15,14.35,10.58,10.14,2.39,19.89-4.86,21.65-14.95,4.43-26.99,3.02-54.57,1.87-81.82-.05-7.98-3.41-15.63-12.64-15.15h-.17Z"/>
        <path class="cls-1" d="m854.19,838.97c-4.11-16.97-16.19-10.27-20.45,2.2-4.15,11.63-1.08,23.92-2.41,35.88-1.86,9.84-2.84,19.97-8.38,28.76-4.02,6.39-10,11.59-17.71,12.74-10.07,1.65-20.3-2.69-25.18-11.69-11.17-20.67-5.73-45.18-9.57-67.53-.64-3.62-1.76-7.6-5.05-9.66-5.58-3.49-13.5-.8-16.09,5.29-.91,1.84-1.5,3.88-1.92,5.98-4.02,27-3.84,54.43,10.18,78.99,8.05,14.34,23.64,23.57,39.85,24.8,20.33,1.71,37.75-8.19,46.43-26.74,12.57-24.15,16.17-52.05,10.33-78.87l-.04-.17Z"/>
        <path class="cls-1" d="m722.38,829.44c-29.52-5.41-59.53-5.34-88.84,1.75-4.49,1.17-10.15,2.48-12.4,6.85-1.55,3.02-.89,7.35,1.71,9.67,6.89,5.21,16.74,1.54,24.78,1.06,18.73-1.42,14.3,21.41,14.06,33.5-.1,6.35-.06,12.57-.13,18.92-.02,7.74-.06,15.51,0,23.26.16,5.22-.34,11.2,2.54,15.74,3.11,4.96,12.27,5.38,16.01.98,2.8-3.14,3.37-7.77,3.88-11.86,1.82-17.3,3.29-34.44,4.71-51.76.68-6.33,1.01-14.56,4.03-19.61,3.84-7.43,20.32-7.04,29.11-8.38,4.84-.54,9.69-2.74,10.45-7.85,1.25-6.41-3.79-11.02-9.75-12.21l-.16-.04Z"/>
      </g>
    </g>
  </g>
</svg>